<svg xmlns="http://www.w3.org/2000/svg" width="400" height="400"><path d="M190.278.293c-.838.087-1.622.416-1.743.732s-.651.575-1.178.575c-.584 0-.957.234-.957.6 0 .373-.378.6-1 .6-.55 0-1 .18-1 .4 0 .22-.27.4-.6.4-.33 0-.6.27-.6.6 0 .33-.346.6-.769.6-.778 0-3.231 2.149-3.231 2.831 0 .203-.193.369-.429.369-.553 0-1.571 1.018-1.571 1.571 0 .236-.27.429-.6.429-.33 0-.6.24-.6.532 0 .293-.45.774-1 1.068-.55.294-1 .775-1 1.068 0 .292-.193.532-.429.532-.553 0-1.571 1.018-1.571 1.571 0 .236-.27.429-.6.429-.33 0-.6.24-.6.532 0 .293-.45.774-1 1.068-.55.294-1 .775-1 1.068 0 .292-.24.532-.532.532-.293 0-.774.45-1.068 1-.294.55-.775 1-1.068 1-.292 0-.532.27-.532.6 0 .33-.193.6-.429.6-.553 0-1.571 1.018-1.571 1.571 0 .236-.24.429-.532.429-.293 0-.774.45-1.068 1-.294.55-.775 1-1.068 1-.292 0-.532.27-.532.6 0 .33-.193.6-.429.6-.553 0-1.571 1.018-1.571 1.571 0 .236-.27.429-.6.429-.33 0-.6.24-.6.532 0 .293-.45.774-1 1.068-.55.294-1 .775-1 1.068 0 .292-.193.532-.429.532-.553 0-1.571 1.018-1.571 1.571 0 .236-.27.429-.6.429-.33 0-.6.24-.6.532 0 .293-.45.774-1 1.068-.55.294-1 .775-1 1.068 0 .292-.24.532-.532.532-.293 0-.774.45-1.068 1-.294.55-.775 1-1.068 1-.292 0-.532.27-.532.6 0 .33-.193.6-.429.6-.553 0-1.571 1.018-1.571 1.571 0 .236-.27.429-.6.429-.419 0-.6.422-.6 1.4s.181 1.4.6 1.4c.33 0 .6.194.6.431 0 .56 2.209 2.769 2.769 2.769.237 0 .431.176.431.391 0 .535 4.243 4.809 4.774 4.809.234 0 .426.192.426.426 0 .555 4.219 4.774 4.774 4.774.234 0 .426.192.426.426 0 .531 4.274 4.774 4.809 4.774.215 0 .391.194.391.431 0 .56 2.209 2.769 2.769 2.769.237 0 .431.176.431.391 0 .535 4.243 4.809 4.774 4.809.234 0 .426.192.426.426 0 .555 4.219 4.774 4.774 4.774.234 0 .426.192.426.426 0 .531 4.274 4.774 4.809 4.774.215 0 .391.194.391.431 0 .56 2.209 2.769 2.769 2.769.237 0 .431.173.431.385 0 .211.794 1.201 1.764 2.2l1.765 1.815h3.248c2.518 0 3.3-.135 3.478-.6.343-.892 10.545-.892 10.545 0 0 .433.444.6 1.6.6.88 0 1.6.18 1.6.4 0 .22.63.4 1.4.4.978 0 1.4.181 1.4.6 0 .4.4.6 1.2.6.8 0 1.2.2 1.2.6 0 .34.359.6.827.6.455 0 1.421.63 2.147 1.4.726.77 1.62 1.4 1.986 1.4.366 0 .769.27.895.6.127.33.481.6.788.6.306 0 .557.27.557.6 0 .33.168.6.373.6s.5.405.656.9c.155.495.887 1.473 1.627 2.173.739.7 1.344 1.645 1.344 2.1 0 .468.26.827.6.827.4 0 .6.4.6 1.2 0 .8.2 1.2.6 1.2.419 0 .6.422.6 1.4 0 .77.18 1.4.4 1.4.22 0 .4.72.4 1.6 0 1.156.167 1.6.6 1.6.502 0 .6.84.6 5.157 0 4.215-.11 5.199-.6 5.388-.735.282-.9 7.455-.171 7.455.553 0 1.571 1.018 1.571 1.571 0 .236.27.429.6.429.33 0 .6.18.6.4 0 .22.27.4.6.4.33 0 .6.27.6.6 0 .33.18.6.4.6.22 0 .4.27.4.6 0 .33.176.6.391.6.51 0 4.809 4.299 4.809 4.809 0 .215.176.391.391.391.51 0 4.809 4.299 4.809 4.809 0 .215.27.391.6.391.33 0 .6.18.6.4 0 .22.27.4.6.4.33 0 .6.27.6.6 0 .33.18.6.4.6.22 0 .4.27.4.6 0 .33.193.6.429.6.553 0 1.571 1.018 1.571 1.571 0 .236.27.429.6.429.33 0 .6.18.6.4 0 .22.27.4.6.4.33 0 .6.27.6.6 0 .33.18.6.4.6.22 0 .4.27.4.6 0 .33.176.6.391.6.51 0 4.809 4.299 4.809 4.809 0 .215.176.391.391.391.51 0 4.809 4.299 4.809 4.809 0 .215.27.391.6.391.33 0 .6.18.6.4 0 .22.27.4.6.4.33 0 .6.27.6.6 0 .33.18.6.4.6.22 0 .4.27.4.6 0 .33.193.6.429.6.553 0 1.571 1.018 1.571 1.571 0 .236.27.429.6.429.33 0 .6.18.6.4 0 .22.27.4.6.4.33 0 .6.27.6.6 0 .33.18.6.4.6.22 0 .4.27.4.6 0 .472.556.6 2.6.6s2.6-.128 2.6-.6c0-.51 1.022-.6 6.8-.6s6.8.09 6.8.6c0 .433.444.6 1.6.6.88 0 1.6.18 1.6.4 0 .22.45.4 1 .4.622 0 1 .227 1 .6 0 .365.372.6.951.6.523 0 1.175.27 1.449.6.274.33.759.6 1.078.6.677 0 1.722.953 1.722 1.571 0 .236.27.429.6.429.33 0 .6.18.6.4 0 .22.45.4 1 .4.622 0 1 .227 1 .6 0 .33.27.6.6.6.341 0 .6.359.6.831 0 .863 2.015 3.169 2.769 3.169.237 0 .437.405.444.9.014 1.032.859 2.3 1.531 2.3.251 0 .456.45.456 1s.18 1 .4 1c.22 0 .4.72.4 1.6 0 1.156.167 1.6.6 1.6.461 0 .6.511.6 2.2s.139 2.2.6 2.2c.495 0 .6.733.6 4.2s-.105 4.2-.6 4.2c-.452 0-.6.484-.6 1.957 0 1.371-.18 2.026-.6 2.188-.33.126-.6.585-.6 1.019 0 .434-.18.9-.4 1.036-.22.136-.4.867-.4 1.624 0 .956-.183 1.376-.6 1.376-.33 0-.6.27-.6.6 0 .33-.18.6-.4.6-.22 0-.4.45-.4 1 0 .622-.227 1-.6 1-.33 0-.6.27-.6.6 0 .33-.24.6-.532.6-.293 0-.774.45-1.068 1-.294.55-.775 1-1.068 1-.292 0-.532.193-.532.429 0 .553-1.018 1.571-1.571 1.571-.236 0-.429.27-.429.6 0 .33-.193.6-.429.6-.553 0-1.571 1.018-1.571 1.571 0 .236-.456.429-1.013.429-.556 0-1.116.27-1.242.6-.127.33-.661.6-1.188.6-.526 0-.957.18-.957.4 0 .22-.45.4-1 .4-.622 0-1 .227-1 .6 0 .453-.489.6-2 .6-1.1 0-2 .18-2 .4 0 .248-2.2.4-5.8.4-3.6 0-5.8-.152-5.8-.4 0-.22-.99-.4-2.2-.4-1.689 0-2.2-.139-2.2-.6 0-.373-.378-.6-1-.6-.55 0-1-.18-1-.4 0-.22-.45-.4-1-.4-.622 0-1-.227-1-.6s-.378-.6-1-.6-1-.227-1-.6c0-.33-.27-.6-.6-.6-.33 0-.6-.18-.6-.4 0-.22-.27-.4-.6-.4-.33 0-.6-.193-.6-.429 0-.553-1.018-1.571-1.571-1.571-.236 0-.429-.174-.429-.386 0-.523-2.269-2.814-2.787-2.814-.227 0-.413-.27-.413-.6 0-.33-.18-.6-.4-.6-.22 0-.4-.45-.4-1 0-.622-.227-1-.6-1-.33 0-.6-.27-.6-.6 0-.33-.18-.6-.4-.6-.22 0-.4-.416-.4-.924 0-.507-.264-1.272-.587-1.7-.323-.427-.593-1.181-.6-1.676-.008-.528-.261-.9-.613-.9-.472 0-.6-.556-.6-2.6 0-1.467-.174-2.6-.4-2.6-.233 0-.4-1.333-.4-3.2 0-1.867.167-3.2.4-3.2.226 0 .4-1.133.4-2.6 0-2.044.128-2.6.6-2.6s.6-.556.6-2.6c0-1.582-.168-2.6-.429-2.6-.553 0-1.571-1.018-1.571-1.571 0-.236-.166-.429-.369-.429-.481 0-2.831-2.35-2.831-2.831 0-.203-.193-.369-.429-.369-.553 0-1.571-1.018-1.571-1.571 0-.236-.27-.429-.6-.429-.33 0-.6-.27-.6-.6 0-.33-.193-.6-.429-.6-.553 0-1.571-1.018-1.571-1.571a.43.43 0 00-.429-.429c-.553 0-1.571-1.018-1.571-1.571 0-.236-.27-.429-.6-.429-.33 0-.6-.27-.6-.6 0-.33-.193-.6-.429-.6-.553 0-1.571-1.018-1.571-1.571a.43.43 0 00-.429-.429c-.553 0-1.571-1.018-1.571-1.571 0-.236-.27-.429-.6-.429-.33 0-.6-.27-.6-.6 0-.33-.193-.6-.429-.6-.553 0-1.571-1.018-1.571-1.571 0-.236-.166-.429-.369-.429-.481 0-2.831-2.35-2.831-2.831 0-.203-.193-.369-.429-.369-.553 0-1.571-1.018-1.571-1.571 0-.236-.27-.429-.6-.429-.33 0-.6-.27-.6-.6 0-.33-.193-.6-.429-.6-.553 0-1.571-1.018-1.571-1.571a.43.43 0 00-.429-.429c-.553 0-1.571-1.018-1.571-1.571 0-.236-.27-.429-.6-.429-.33 0-.6-.27-.6-.6 0-.33-.193-.6-.429-.6-.553 0-1.571-1.018-1.571-1.571a.43.43 0 00-.429-.429c-.553 0-1.571-1.018-1.571-1.571 0-.236-.27-.429-.6-.429-.33 0-.6-.27-.6-.6 0-.33-.193-.6-.429-.6-.553 0-1.571-1.018-1.571-1.571 0-.236-.205-.429-.456-.429s-.675-.299-.942-.665c-1.853-2.534-1.802-4.104-1.802 55.652V259.6h1c.55 0 1 .18 1 .4 0 .22.27.4.6.4.33 0 .6.27.6.6 0 .373.378.6 1 .6s1 .227 1 .6c0 .33.193.6.429.6.553 0 1.571 1.018 1.571 1.571 0 .236.186.429.413.429.518 0 2.787 2.291 2.787 2.814 0 .212.27.386.6.386.346 0 .6.362.6.854 0 .47.45 1.271 1 1.781s1 1.295 1 1.746c0 .461.262.819.6.819.417 0 .6.42.6 1.376 0 .757.18 1.488.4 1.624.22.136.4.867.4 1.624 0 .956.183 1.376.6 1.376.506 0 .6.911.6 5.8 0 4.889-.094 5.8-.6 5.8-.433 0-.6.444-.6 1.6 0 .88-.18 1.6-.4 1.6-.22 0-.4.72-.4 1.6 0 1.156-.167 1.6-.6 1.6-.373 0-.6.378-.6 1s-.227 1-.6 1-.6.378-.6 1c0 .55-.18 1-.4 1-.22 0-.4.27-.4.6 0 .33-.27.6-.6.6-.33 0-.6.24-.6.532 0 .293-.45.774-1 1.068-.55.294-1 .671-1 .837 0 .431-2.389 2.763-2.831 2.763-.203 0-.369.27-.369.6 0 .33-.27.6-.6.6-.33 0-.6.18-.6.4 0 .22-.335.4-.744.4s-1.082.45-1.495 1c-.419.558-1.157 1-1.668 1-.505 0-1.022.27-1.148.6-.142.37-.75.6-1.588.6-.94 0-1.357.185-1.357.6 0 .461-.511.6-2.2.6-1.21 0-2.2.18-2.2.4 0 .243-1.792.4-4.576.4-2.62 0-4.682-.171-4.824-.4-.136-.22-.847-.4-1.581-.4-.816 0-1.423-.233-1.564-.6-.142-.372-.751-.6-1.6-.6-.848 0-1.457-.228-1.6-.6-.126-.33-.596-.6-1.042-.6-.447 0-.813-.18-.813-.4 0-.22-.54-.4-1.2-.4-.66 0-1.2-.193-1.2-.429 0-.705-1.086-1.571-1.971-1.571-.47 0-.829-.26-.829-.6 0-.33-.27-.6-.6-.6-.33 0-.6-.27-.6-.6 0-.33-.193-.6-.429-.6-.553 0-1.571-1.018-1.571-1.571 0-.236-.27-.429-.6-.429-.346 0-.6-.362-.6-.854 0-.47-.45-1.271-1-1.781s-1-1.211-1-1.558c0-.348-.27-.736-.6-.862-.33-.127-.6-.481-.6-.788 0-.306-.18-.557-.4-.557-.22 0-.4-.546-.4-1.213 0-.708-.249-1.308-.6-1.442-.391-.15-.6-.773-.6-1.788 0-1.117-.169-1.557-.6-1.557-.483 0-.6-.622-.6-3.2 0-1.867-.167-3.2-.4-3.2-.22 0-.4-.27-.4-.6 0-.33.18-.6.4-.6.231 0 .4-1.267.4-3 0-2.4.12-3 .6-3 .431 0 .6-.44.6-1.557 0-1.015.209-1.638.6-1.788.33-.126.6-.585.6-1.019 0-.434.18-.9.4-1.036.22-.136.4-.602.4-1.036 0-.434.27-.893.6-1.019.33-.127.6-.661.6-1.188 0-.526.193-.957.429-.957.533 0 1.571-1.01 1.571-1.529 0-.212.27-.489.6-.616.33-.126.6-.596.6-1.042 0-.447.18-.813.4-.813.22 0 .4-.27.4-.6 0-.346.362-.6.854-.6.47 0 1.271-.45 1.781-1s1.115-1 1.346-1c.23 0 .419-.27.419-.6 0-.373.378-.6 1-.6.55 0 1-.18 1-.4 0-.22.27-.4.6-.4.33 0 .6-.27.6-.6 0-.419.422-.6 1.4-.6h1.4V145.6h-1c-.55 0-1-.18-1-.4 0-.22-.45-.4-1-.4-.622 0-1-.227-1-.6 0-.335-.356-.6-.805-.6-.443 0-1.701-.9-2.795-2-1.094-1.1-2.172-2-2.395-2a.406.406 0 01-.405-.405c0-.223-.9-1.301-2-2.395s-2-2.352-2-2.795c0-.449-.265-.805-.6-.805-.373 0-.6-.378-.6-1 0-.55-.18-1-.4-1-.22 0-.4-.431-.4-.957 0-.527-.27-1.061-.6-1.188-.377-.144-.6-.756-.6-1.642 0-.989-.18-1.413-.6-1.413-.979 0-.951-13.171.029-13.72.317-.178.571-.914.571-1.657 0-.82.232-1.427.6-1.568.377-.144.6-.756.6-1.642 0-.989-.18-1.413-.6-1.413-.33 0-.6-.27-.6-.6 0-.33-.193-.6-.429-.6-.553 0-1.571-1.018-1.571-1.571a.43.43 0 00-.429-.429c-.553 0-1.571-1.018-1.571-1.571 0-.236-.27-.429-.6-.429-.33 0-.6-.27-.6-.6 0-.33-.193-.6-.429-.6-.553 0-1.571-1.018-1.571-1.571a.43.43 0 00-.429-.429c-.553 0-1.571-1.018-1.571-1.571 0-.236-.27-.429-.6-.429-.33 0-.6-.27-.6-.6 0-.33-.193-.6-.429-.6-.553 0-1.571-1.018-1.571-1.571 0-.236-.27-.429-.6-.429-.33 0-.6-.193-.6-.429 0-.553-1.018-1.571-1.571-1.571-.236 0-.429-.27-.429-.6 0-.33-.193-.6-.429-.6-.553 0-1.571-1.018-1.571-1.571 0-.236-.27-.429-.6-.429-.33 0-.6-.24-.6-.532 0-.293-.45-.774-1-1.068-.55-.294-1-.775-1-1.068 0-.292-.193-.532-.429-.532-.553 0-1.571-1.018-1.571-1.571 0-.236-.27-.429-.6-.429-.33 0-.6-.27-.6-.6 0-.33-.193-.6-.429-.6-.553 0-1.571-1.018-1.571-1.571a.43.43 0 00-.429-.429c-.553 0-1.571-1.018-1.571-1.571 0-.236-.27-.429-.6-.429-.33 0-.6-.27-.6-.6 0-.33-.193-.6-.429-.6-.553 0-1.571-1.018-1.571-1.571 0-.236-.27-.429-.6-.429-.33 0-.6-.193-.6-.429 0-.553-1.018-1.571-1.571-1.571-.236 0-.429-.27-.429-.6 0-.33-.193-.6-.429-.6-.553 0-1.571-1.018-1.571-1.571 0-.236-.27-.429-.6-.429-.33 0-.6-.24-.6-.532 0-.293-.45-.774-1-1.068-.55-.294-1-.775-1-1.068 0-.292-.193-.532-.429-.532-.553 0-1.571-1.018-1.571-1.571 0-.236-.27-.429-.6-.429-.33 0-.6-.27-.6-.6 0-.33-.227-.6-.505-.6s-.843-.45-1.256-1c-.824-1.098-2.239-1.35-2.239-.4 0 .33-.24.6-.532.6-.293 0-.774.45-1.068 1-.294.55-.775 1-1.068 1-.292 0-.532.27-.532.6 0 .33-.193.6-.429.6-.553 0-1.571 1.018-1.571 1.571 0 .236-.27.429-.6.429-.33 0-.6.24-.6.532 0 .293-.45.774-1 1.068-.55.294-1 .775-1 1.068 0 .292-.193.532-.429.532-.553 0-1.571 1.018-1.571 1.571 0 .236-.27.429-.6.429-.33 0-.6.24-.6.532 0 .293-.45.774-1 1.068-.55.294-1 .775-1 1.068 0 .292-.24.532-.532.532-.293 0-.774.45-1.068 1-.294.55-.775 1-1.068 1-.292 0-.532.27-.532.6 0 .33-.193.6-.429.6-.553 0-1.571 1.018-1.571 1.571 0 .236-.24.429-.532.429-.293 0-.774.45-1.068 1-.294.55-.775 1-1.068 1-.292 0-.532.27-.532.6 0 .33-.193.6-.429.6-.553 0-1.571 1.018-1.571 1.571 0 .236-.27.429-.6.429-.33 0-.6.24-.6.532 0 .293-.45.774-1 1.068-.55.294-1 .775-1 1.068 0 .292-.193.532-.429.532-.235 0-.685.257-1 .571-.314.315-.571.765-.571 1 0 .236-.27.429-.6.429-.33 0-.6.24-.6.532 0 .293-.45.774-1 1.068-.55.294-1 .775-1 1.068 0 .292-.24.532-.532.532-.293 0-.774.45-1.068 1-.294.55-.775 1-1.068 1-.292 0-.532.27-.532.6 0 .33-.193.6-.429.6-.553 0-1.571 1.018-1.571 1.571 0 .236-.24.429-.532.429-.293 0-.774.45-1.068 1-.294.55-.775 1-1.068 1-.292 0-.532.27-.532.6 0 .33-.193.6-.429.6-.553 0-1.571 1.018-1.571 1.571 0 .236-.27.429-.6.429-.33 0-.6.24-.6.532 0 .293-.45.774-1 1.068-.55.294-1 .775-1 1.068 0 .292-.193.532-.429.532-.553 0-1.571 1.018-1.571 1.571 0 .236-.27.429-.6.429-.33 0-.6.24-.6.532 0 .293-.45.774-1 1.068-.55.294-1 .775-1 1.068 0 .292-.24.532-.532.532-.293 0-.774.45-1.068 1-.294.55-.775 1-1.068 1-.292 0-.532.27-.532.6 0 .33-.193.6-.429.6-.553 0-1.571 1.018-1.571 1.571 0 .236-.24.429-.532.429-.293 0-.774.45-1.068 1-.294.55-.775 1-1.068 1-.292 0-.532.27-.532.6 0 .33-.193.6-.429.6-.553 0-1.571 1.018-1.571 1.571 0 .236-.27.429-.6.429-.33 0-.6.24-.6.532 0 .293-.45.774-1 1.068-.55.294-1 .775-1 1.068 0 .292-.193.532-.429.532-.553 0-1.571 1.018-1.571 1.571 0 .236-.27.429-.6.429-.33 0-.6.24-.6.532 0 .293-.45.774-1 1.068-.55.294-1 .775-1 1.068 0 .292-.24.532-.532.532-.293 0-.774.45-1.068 1-.294.55-.775 1-1.068 1-.292 0-.532.27-.532.6 0 .33-.193.6-.429.6-.235 0-.685.257-1 .571-.314.315-.571.765-.571 1 0 .236-.24.429-.532.429-.293 0-.774.45-1.068 1-.294.55-.775 1-1.068 1-.292 0-.532.27-.532.6 0 .33-.193.6-.429.6-.553 0-1.571 1.018-1.571 1.571 0 .236-.27.429-.6.429-.33 0-.6.24-.6.532 0 .293-.45.774-1 1.068-.55.294-1 .775-1 1.068 0 .292-.193.532-.429.532-.553 0-1.571 1.018-1.571 1.571 0 .236-.27.429-.6.429-.33 0-.6.24-.6.532 0 .293-.45.774-1 1.068-.55.294-1 .775-1 1.068 0 .292-.24.532-.532.532-.293 0-.774.45-1.068 1-.294.55-.775 1-1.068 1-.292 0-.532.27-.532.6 0 .33-.193.6-.429.6-.553 0-1.571 1.018-1.571 1.571 0 .236-.24.429-.532.429-.293 0-.774.45-1.068 1-.294.55-.775 1-1.068 1-.292 0-.532.27-.532.6 0 .33-.193.6-.429.6-.553 0-1.571 1.018-1.571 1.571 0 .236-.27.429-.6.429-.33 0-.6.24-.6.532 0 .293-.45.774-1 1.068-.55.294-1 .775-1 1.068 0 .292-.193.532-.429.532-.553 0-1.571 1.018-1.571 1.571 0 .236-.27.429-.6.429-.33 0-.6.24-.6.532 0 .293-.45.774-1 1.068-.55.294-1 .775-1 1.068 0 .292-.24.532-.532.532-.293 0-.774.45-1.068 1-.294.55-.775 1-1.068 1-.292 0-.532.27-.532.6 0 .33-.193.6-.429.6-.553 0-1.571 1.018-1.571 1.571 0 .236-.24.429-.532.429-.293 0-.774.45-1.068 1-.294.55-.775 1-1.068 1-.292 0-.532.27-.532.6 0 .33-.193.6-.429.6-.553 0-1.571 1.018-1.571 1.571 0 .236-.166.429-.369.429-.682 0-2.831 2.453-2.831 3.231 0 .423-.27.769-.6.769-.33 0-.6.27-.6.6 0 .33-.18.6-.4.6-.22 0-.4.45-.4 1 0 .622-.227 1-.6 1-.346 0-.6.362-.6.856 0 .471-.312 1.084-.693 1.362-1.362.997-1.246 21.782.122 21.782.342 0 .571.4.571 1 0 .622.227 1 .6 1 .352 0 .605.372.613.9.014 1.032.859 2.3 1.531 2.3.251 0 .456.45.456 1s.18 1 .4 1c.22 0 .4.27.4.6 0 .33.174.6.386.6.523 0 2.814 2.269 2.814 2.787 0 .227.186.413.413.413.518 0 2.787 2.291 2.787 2.814 0 .212.193.386.429.386.553 0 1.571 1.018 1.571 1.571 0 .236.194.429.431.429.56 0 2.769 2.209 2.769 2.769 0 .237.193.431.429.431.553 0 1.571 1.018 1.571 1.571 0 .236.174.429.386.429.523 0 2.814 2.269 2.814 2.787 0 .227.193.413.429.413.553 0 1.571 1.018 1.571 1.571 0 .236.174.429.386.429.523 0 2.814 2.269 2.814 2.787 0 .227.186.413.413.413.518 0 2.787 2.291 2.787 2.814 0 .212.193.386.429.386.553 0 1.571 1.018 1.571 1.571 0 .236.194.429.431.429.56 0 2.769 2.209 2.769 2.769 0 .237.193.431.429.431.553 0 1.571 1.018 1.571 1.571 0 .236.174.429.386.429.523 0 2.814 2.269 2.814 2.787 0 .227.193.413.429.413.553 0 1.571 1.018 1.571 1.571 0 .236.174.429.386.429.523 0 2.814 2.269 2.814 2.787 0 .227.186.413.413.413.518 0 2.787 2.291 2.787 2.814 0 .212.193.386.429.386.553 0 1.571 1.018 1.571 1.571 0 .236.194.429.431.429.56 0 2.769 2.209 2.769 2.769 0 .237.193.431.429.431.553 0 1.571 1.018 1.571 1.571 0 .236.174.429.386.429.523 0 2.814 2.269 2.814 2.787 0 .227.193.413.429.413.553 0 1.571 1.018 1.571 1.571 0 .236.174.429.386.429.523 0 2.814 2.269 2.814 2.787 0 .227.186.413.413.413.518 0 2.787 2.291 2.787 2.814 0 .212.193.386.429.386.553 0 1.571 1.018 1.571 1.571 0 .236.194.429.431.429.56 0 2.769 2.209 2.769 2.769 0 .237.193.431.429.431.553 0 1.571 1.018 1.571 1.571 0 .236.194.429.431.429.56 0 2.769 2.209 2.769 2.769 0 .237.193.431.429.431.553 0 1.571 1.018 1.571 1.571 0 .236.174.429.386.429.523 0 2.814 2.269 2.814 2.787 0 .227.186.413.413.413.518 0 2.787 2.291 2.787 2.814 0 .212.193.386.429.386.553 0 1.571 1.018 1.571 1.571 0 .236.194.429.431.429.56 0 2.769 2.209 2.769 2.769 0 .237.193.431.429.431.553 0 1.571 1.018 1.571 1.571 0 .236.194.429.431.429.56 0 2.769 2.209 2.769 2.769 0 .237.193.431.429.431.553 0 1.571 1.018 1.571 1.571 0 .236.174.429.386.429.523 0 2.814 2.269 2.814 2.787 0 .227.186.413.413.413.518 0 2.787 2.291 2.787 2.814 0 .212.193.386.429.386.553 0 1.571 1.018 1.571 1.571 0 .236.194.429.431.429.56 0 2.769 2.209 2.769 2.769 0 .237.193.431.429.431.553 0 1.571 1.018 1.571 1.571 0 .236.194.429.431.429.56 0 2.769 2.209 2.769 2.769 0 .237.193.431.429.431.553 0 1.571 1.018 1.571 1.571 0 .236.174.429.386.429.523 0 2.814 2.269 2.814 2.787 0 .227.186.413.413.413.518 0 2.787 2.291 2.787 2.814 0 .212.193.386.429.386.553 0 1.571 1.018 1.571 1.571 0 .236.194.429.431.429.56 0 2.769 2.209 2.769 2.769 0 .237.193.431.429.431.553 0 1.571 1.018 1.571 1.571 0 .236.194.429.431.429.56 0 2.769 2.209 2.769 2.769 0 .237.193.431.429.431.553 0 1.571 1.018 1.571 1.571 0 .236.174.429.386.429.523 0 2.814 2.269 2.814 2.787 0 .227.186.413.413.413.518 0 2.787 2.291 2.787 2.814 0 .212.193.386.429.386.553 0 1.571 1.018 1.571 1.571 0 .236.186.429.413.429.518 0 2.787 2.291 2.787 2.814 0 .212.193.386.429.386.553 0 1.571 1.018 1.571 1.571 0 .236.194.429.431.429.56 0 2.769 2.209 2.769 2.769 0 .237.193.431.429.431.553 0 1.571 1.018 1.571 1.571 0 .236.179.429.398.429.219 0 2.466 2.07 4.993 4.6 2.528 2.53 4.779 4.6 5.003 4.6.223 0 .406.192.406.426 0 .555 4.219 4.774 4.774 4.774.234 0 .426.192.426.426 0 .555 4.219 4.774 4.774 4.774.234 0 .426.191.426.425 0 .748 5.621 5.975 6.425 5.975.426 0 .775.205.775.456 0 .672 1.268 1.517 2.3 1.531.528.008.9.261.9.613 0 .373.378.6 1 .6.594 0 1 .229 1 .564 0 1.348 20.81 1.457 21.792.115.273-.374.881-.679 1.352-.679.494 0 .856-.254.856-.6 0-.373.378-.6 1-.6.55 0 1-.18 1-.4 0-.22.27-.4.6-.4.33 0 .6-.193.6-.429 0-.553 1.018-1.571 1.571-1.571.236 0 .429-.27.429-.6 0-.33.27-.6.6-.6.33 0 .6-.193.6-.429 0-.553 1.018-1.571 1.571-1.571a.43.43 0 00.429-.429c0-.553 1.018-1.571 1.571-1.571.236 0 .429-.27.429-.6 0-.33.27-.6.6-.6.33 0 .6-.193.6-.429 0-.553 1.018-1.571 1.571-1.571a.43.43 0 00.429-.429c0-.553 1.018-1.571 1.571-1.571.236 0 .429-.27.429-.6 0-.33.27-.6.6-.6.33 0 .6-.193.6-.429 0-.553 1.018-1.571 1.571-1.571.236 0 .429-.27.429-.6 0-.33.27-.6.6-.6.33 0 .6-.193.6-.429 0-.553 1.018-1.571 1.571-1.571a.43.43 0 00.429-.429c0-.553 1.018-1.571 1.571-1.571.236 0 .429-.27.429-.6 0-.33.27-.6.6-.6.33 0 .6-.193.6-.429 0-.553 1.018-1.571 1.571-1.571a.43.43 0 00.429-.429c0-.553 1.018-1.571 1.571-1.571.236 0 .429-.27.429-.6 0-.33.27-.6.6-.6.33 0 .6-.193.6-.429 0-.553 1.018-1.571 1.571-1.571a.43.43 0 00.429-.429c0-.553 1.018-1.571 1.571-1.571.236 0 .429-.27.429-.6 0-.33.27-.6.6-.6.33 0 .6-.193.6-.429 0-.553 1.018-1.571 1.571-1.571.236 0 .429-.27.429-.6 0-.33.27-.6.6-.6.33 0 .6-.193.6-.429 0-.553 1.018-1.571 1.571-1.571a.43.43 0 00.429-.429c0-.553 1.018-1.571 1.571-1.571.236 0 .429-.27.429-.6 0-.33.27-.6.6-.6.33 0 .6-.193.6-.429 0-.553 1.018-1.571 1.571-1.571a.43.43 0 00.429-.429c0-.553 1.018-1.571 1.571-1.571.236 0 .429-.27.429-.6 0-.33.27-.6.6-.6.33 0 .6-.193.6-.429 0-.553 1.018-1.571 1.571-1.571a.43.43 0 00.429-.429c0-.553 1.018-1.571 1.571-1.571.236 0 .429-.27.429-.6 0-.33.27-.6.6-.6.33 0 .6-.193.6-.429 0-.553 1.018-1.571 1.571-1.571.236 0 .429-.27.429-.6 0-.33.27-.6.6-.6.33 0 .6-.193.6-.429 0-.553 1.018-1.571 1.571-1.571a.43.43 0 00.429-.429c0-.553 1.018-1.571 1.571-1.571.236 0 .429-.27.429-.6 0-.33.27-.6.6-.6.33 0 .6-.193.6-.429 0-.553 1.018-1.571 1.571-1.571a.43.43 0 00.429-.429c0-.553 1.018-1.571 1.571-1.571.236 0 .429-.27.429-.6 0-.33.27-.6.6-.6.33 0 .6-.193.6-.429 0-.553 1.018-1.571 1.571-1.571a.43.43 0 00.429-.429c0-.553 1.018-1.571 1.571-1.571.236 0 .429-.27.429-.6 0-.33.27-.6.6-.6.33 0 .6-.193.6-.429 0-.553 1.018-1.571 1.571-1.571.236 0 .429-.27.429-.6 0-.33.27-.6.6-.6.33 0 .6-.193.6-.429 0-.553 1.018-1.571 1.571-1.571a.43.43 0 00.429-.429c0-.553 1.018-1.571 1.571-1.571.236 0 .429-.27.429-.6 0-.33.27-.6.6-.6.33 0 .6-.193.6-.429 0-.553 1.018-1.571 1.571-1.571a.43.43 0 00.429-.429c0-.553 1.018-1.571 1.571-1.571.236 0 .429-.27.429-.6 0-.33.27-.6.6-.6.33 0 .6-.193.6-.429 0-.553 1.018-1.571 1.571-1.571a.43.43 0 00.429-.429c0-.553 1.018-1.571 1.571-1.571.236 0 .429-.27.429-.6 0-.33.27-.6.6-.6.33 0 .6-.193.6-.429 0-.553 1.018-1.571 1.571-1.571.236 0 .429-.27.429-.6 0-.33.27-.6.6-.6.33 0 .6-.193.6-.429 0-.553 1.018-1.571 1.571-1.571a.43.43 0 00.429-.429c0-.553 1.018-1.571 1.571-1.571.236 0 .429-.27.429-.6 0-.33.27-.6.6-.6.33 0 .6-.193.6-.429 0-.553 1.018-1.571 1.571-1.571a.43.43 0 00.429-.429c0-.553 1.018-1.571 1.571-1.571.236 0 .429-.27.429-.6 0-.33.27-.6.6-.6.33 0 .6-.193.6-.429 0-.553 1.018-1.571 1.571-1.571a.43.43 0 00.429-.429c0-.553 1.018-1.571 1.571-1.571.236 0 .429-.27.429-.6 0-.33.27-.6.6-.6.33 0 .6-.193.6-.429 0-.553 1.018-1.571 1.571-1.571.236 0 .429-.27.429-.6 0-.33.27-.6.6-.6.33 0 .6-.193.6-.429 0-.553 1.018-1.571 1.571-1.571a.43.43 0 00.429-.429c0-.553 1.018-1.571 1.571-1.571.236 0 .429-.27.429-.6 0-.33.27-.6.6-.6.33 0 .6-.193.6-.429 0-.553 1.018-1.571 1.571-1.571a.43.43 0 00.429-.429c0-.553 1.018-1.571 1.571-1.571.236 0 .429-.27.429-.6 0-.33.27-.6.6-.6.33 0 .6-.193.6-.429 0-.553 1.018-1.571 1.571-1.571a.43.43 0 00.429-.429c0-.553 1.018-1.571 1.571-1.571.236 0 .429-.27.429-.6 0-.33.27-.6.6-.6.33 0 .6-.193.6-.429 0-.553 1.018-1.571 1.571-1.571.236 0 .429-.27.429-.6 0-.33.27-.6.6-.6.33 0 .6-.193.6-.429 0-.553 1.018-1.571 1.571-1.571a.43.43 0 00.429-.429c0-.553 1.018-1.571 1.571-1.571.236 0 .429-.27.429-.6 0-.33.27-.6.6-.6.33 0 .6-.193.6-.429 0-.553 1.018-1.571 1.571-1.571a.43.43 0 00.429-.429c0-.553 1.018-1.571 1.571-1.571.236 0 .429-.27.429-.6 0-.33.27-.6.6-.6.33 0 .6-.193.6-.429 0-.553 1.018-1.571 1.571-1.571a.43.43 0 00.429-.429c0-.553 1.018-1.571 1.571-1.571.236 0 .429-.27.429-.6 0-.33.27-.6.6-.6.33 0 .6-.193.6-.429 0-.553 1.018-1.571 1.571-1.571.236 0 .429-.27.429-.6 0-.33.27-.6.6-.6.33 0 .6-.193.6-.429 0-.553 1.018-1.571 1.571-1.571a.43.43 0 00.429-.429c0-.553 1.018-1.571 1.571-1.571.236 0 .429-.27.429-.6 0-.33.27-.6.6-.6.33 0 .6-.193.6-.429 0-.553 1.018-1.571 1.571-1.571a.43.43 0 00.429-.429c0-.553 1.018-1.571 1.571-1.571.236 0 .429-.27.429-.6 0-.33.27-.6.6-.6.33 0 .6-.193.6-.429 0-.553 1.018-1.571 1.571-1.571a.43.43 0 00.429-.429c0-.553 1.018-1.571 1.571-1.571.236 0 .429-.27.429-.6 0-.33.27-.6.6-.6.33 0 .6-.193.6-.429 0-.553 1.018-1.571 1.571-1.571.236 0 .429-.27.429-.6 0-.33.27-.6.6-.6.33 0 .6-.193.6-.429 0-.553 1.018-1.571 1.571-1.571a.43.43 0 00.429-.429c0-.553 1.018-1.571 1.571-1.571.236 0 .429-.27.429-.6 0-.33.27-.6.6-.6.33 0 .6-.193.6-.429 0-.553 1.018-1.571 1.571-1.571a.43.43 0 00.429-.429c0-.553 1.018-1.571 1.571-1.571.236 0 .429-.27.429-.6 0-.33.27-.6.6-.6.33 0 .6-.193.6-.429 0-.235.257-.685.571-1 .315-.314.765-.571 1-.571.236 0 .429-.27.429-.6 0-.33.18-.6.4-.6.22 0 .4-.45.4-1 0-.622.227-1 .6-1 .346 0 .6-.362.6-.856 0-.471.305-1.079.679-1.352 1.342-.982 1.233-21.792-.115-21.792-.335 0-.564-.406-.564-1 0-.622-.227-1-.6-1-.352 0-.605-.372-.613-.9-.014-1.032-.859-2.3-1.531-2.3-.251 0-.456-.382-.456-.85 0-.495-.836-1.659-2-2.788-1.1-1.065-2-2.123-2-2.35a.414.414 0 00-.413-.412c-.518 0-2.787-2.291-2.787-2.814 0-.212-.193-.386-.429-.386-.235 0-.685-.257-1-.571-.314-.315-.571-.765-.571-1a.431.431 0 00-.431-.429c-.237 0-.957-.526-1.6-1.169-.643-.643-1.169-1.363-1.169-1.6a.431.431 0 00-.429-.431c-.235 0-.685-.257-1-.571-.314-.315-.571-.765-.571-1 0-.236-.174-.429-.386-.429-.523 0-2.814-2.269-2.814-2.787a.423.423 0 00-.429-.413c-.235 0-.685-.257-1-.571-.314-.315-.571-.765-.571-1 0-.236-.174-.429-.386-.429-.523 0-2.814-2.269-2.814-2.787a.414.414 0 00-.413-.413c-.518 0-2.787-2.291-2.787-2.814 0-.212-.193-.386-.429-.386-.235 0-.685-.257-1-.571-.314-.315-.571-.765-.571-1a.431.431 0 00-.431-.429c-.237 0-.957-.526-1.6-1.169-.643-.643-1.169-1.363-1.169-1.6a.431.431 0 00-.429-.431c-.553 0-1.571-1.018-1.571-1.571 0-.236-.174-.429-.386-.429-.523 0-2.814-2.269-2.814-2.787a.423.423 0 00-.429-.413c-.235 0-.685-.257-1-.571-.314-.315-.571-.765-.571-1 0-.236-.174-.429-.386-.429-.523 0-2.814-2.269-2.814-2.787a.414.414 0 00-.413-.413c-.518 0-2.787-2.291-2.787-2.814 0-.212-.193-.386-.429-.386-.235 0-.685-.257-1-.571-.314-.315-.571-.765-.571-1a.431.431 0 00-.431-.429c-.56 0-2.769-2.209-2.769-2.769a.431.431 0 00-.429-.431c-.235 0-.685-.257-1-.571-.314-.315-.571-.765-.571-1a.431.431 0 00-.431-.429c-.56 0-2.769-2.209-2.769-2.769a.431.431 0 00-.429-.431c-.553 0-1.571-1.018-1.571-1.571 0-.236-.174-.429-.386-.429-.523 0-2.814-2.269-2.814-2.787a.414.414 0 00-.413-.413c-.518 0-2.787-2.291-2.787-2.814 0-.212-.193-.386-.429-.386-.235 0-.685-.257-1-.571-.314-.315-.571-.765-.571-1a.431.431 0 00-.431-.429c-.237 0-.957-.526-1.6-1.169-.643-.643-1.169-1.363-1.169-1.6a.431.431 0 00-.429-.431c-.235 0-.685-.257-1-.571-.314-.315-.571-.765-.571-1a.431.431 0 00-.431-.429c-.56 0-2.769-2.209-2.769-2.769a.431.431 0 00-.429-.431c-.553 0-1.571-1.018-1.571-1.571 0-.236-.174-.429-.386-.429-.523 0-2.814-2.269-2.814-2.787a.414.414 0 00-.413-.413c-.518 0-2.787-2.291-2.787-2.814 0-.212-.193-.386-.429-.386-.553 0-1.571-1.018-1.571-1.571a.431.431 0 00-.431-.429c-.56 0-2.769-2.209-2.769-2.769a.431.431 0 00-.429-.431c-.553 0-1.571-1.018-1.571-1.571a.431.431 0 00-.431-.429c-.56 0-2.769-2.209-2.769-2.769a.431.431 0 00-.429-.431c-.553 0-1.571-1.018-1.571-1.571 0-.236-.174-.429-.386-.429-.523 0-2.814-2.269-2.814-2.787a.414.414 0 00-.413-.413c-.518 0-2.787-2.291-2.787-2.814 0-.212-.193-.386-.429-.386-.553 0-1.571-1.018-1.571-1.571a.431.431 0 00-.431-.429c-.56 0-2.769-2.209-2.769-2.769a.431.431 0 00-.429-.431c-.553 0-1.571-1.018-1.571-1.571a.431.431 0 00-.431-.429c-.56 0-2.769-2.209-2.769-2.769a.431.431 0 00-.429-.431c-.553 0-1.571-1.018-1.571-1.571 0-.236-.174-.429-.386-.429-.523 0-2.814-2.269-2.814-2.787a.414.414 0 00-.413-.413c-.518 0-2.787-2.291-2.787-2.814 0-.212-.193-.386-.429-.386-.553 0-1.571-1.018-1.571-1.571a.423.423 0 00-.413-.429c-.518 0-2.787-2.291-2.787-2.814 0-.212-.193-.386-.429-.386-.553 0-1.571-1.018-1.571-1.571a.431.431 0 00-.431-.429c-.56 0-2.769-2.209-2.769-2.769a.431.431 0 00-.429-.431c-.553 0-1.571-1.018-1.571-1.571 0-.236-.174-.429-.386-.429-.523 0-2.814-2.269-2.814-2.787a.414.414 0 00-.413-.413c-.518 0-2.787-2.291-2.787-2.814 0-.212-.193-.386-.429-.386-.553 0-1.571-1.018-1.571-1.571a.423.423 0 00-.413-.429c-.518 0-2.787-2.291-2.787-2.814 0-.212-.193-.386-.429-.386-.553 0-1.571-1.018-1.571-1.571a.431.431 0 00-.431-.429c-.56 0-2.769-2.209-2.769-2.769a.431.431 0 00-.429-.431c-.553 0-1.571-1.018-1.571-1.571 0-.236-.174-.429-.386-.429-.523 0-2.814-2.269-2.814-2.787a.414.414 0 00-.413-.413c-.518 0-2.787-2.291-2.787-2.814 0-.212-.193-.386-.429-.386-.553 0-1.571-1.018-1.571-1.571a.423.423 0 00-.413-.429c-.518 0-2.787-2.291-2.787-2.814 0-.212-.193-.386-.429-.386-.553 0-1.571-1.018-1.571-1.571a.431.431 0 00-.431-.429c-.56 0-2.769-2.209-2.769-2.769a.431.431 0 00-.429-.431c-.553 0-1.571-1.018-1.571-1.571 0-.236-.174-.429-.386-.429-.523 0-2.814-2.269-2.814-2.787a.414.414 0 00-.412-.413c-.227 0-1.285-.9-2.35-2-1.129-1.164-2.293-2-2.788-2-.468 0-.85-.205-.85-.456 0-.672-1.268-1.517-2.3-1.531-.528-.008-.9-.261-.9-.613 0-.373-.378-.6-1-.6-.58 0-1-.23-1-.548 0-.946-13.446-1.453-20.122-.759" fill="#040404" fill-rule="evenodd"/></svg>