<svg xmlns="http://www.w3.org/2000/svg" viewBox="1.62 1.5 197.52 80.65"><path d="M6.527 1.52c-.432 0-.564.612-.564 1.49l-.397 25.924c-.043 3.81-.219 5.078-1.357 5.43-.611.174-.372.216-.941.216-.437 0-.703.09-.703.353 0 .392.397.438.964.438 2.276 0 3.309-.135 3.7-.135.833 0 1.557.135 4.402.135.61 0 1.008-.09 1.008-.438 0-.262-.264-.353-.746-.353-.699 0-.505-.041-1.25-.307-.875-.305-1.442-1.442-1.53-4.86l-.482-18.39h.133c.786.83 5.647 6.304 10.414 11.033 4.55 4.508 10.154 10.249 12.908 12.877.482.482 1.01.963 1.49.963.393 0 .572-.394.572-1.357l.48-27.633c.043-2.452.397-3.376 1.62-3.725.523-.127.089-.038.492-.129.507-.122.787-.134.787-.396 0-.347-.438-.393-1.011-.393-2.141 0-2.982.135-3.461.135-.921 0-1.996-.135-4.272-.135-.658 0-1.138.046-1.138.393 0 .262.175.396.699.396.613 0 .638 0 1.297.262 1.047.438 1.44 1.265 1.484 3.937l.443 19.666h-.226c-.745-.697-6.648-7.007-9.623-9.987C15.328 10.583 8.673 3.447 8.148 2.874 7.403 2.088 7.01 1.52 6.527 1.52zm118.96.132c-.26 0-.39.263-.52.828-.09.353-.93 4.334-.93 5.041 0 .477.09.698.4.698.26 0 .39-.176.48-.524.09-.354.31-.882.74-1.535.66-.962 1.71-1.182 4.25-1.27l6.52-.173V22.67c0 4.028 0 8.006-.22 9.84-.13 1.275-.34 2.133-1.27 2.414-.61.183-1.82.183-1.91.185C60.493 36.877 1.517 77.019 1.647 77.21a.407.407 0 00.567.107c.487-.322 49.92-32.328 129.71-38.3 24.29-1.815 39.09-2.371 39.24-2.362.2.006.39-.133.43-.33.03-.171-5.78-1.49-26.73-1.393-.38-.032-.75-.075-1.05-.117-1.31-.171-1.57-1.136-1.7-2.363-.22-1.88-.22-5.755-.22-9.783V4.717l5.51.13c3.9.089 5.08 1.313 5.17 2.453l.04.483c.05.654.14.875.49.875.26 0 .34-.265.39-.704 0-1.142.13-4.16.13-5.08 0-.658-.04-.92-.35-.92-.17 0-.52.092-1.18.223-.66.087-1.62.22-3.02.22h-17.33c-1.45 0-3.11-.087-4.38-.22-1.09-.087-1.53-.525-1.88-.525zm-66.619.611c-.654 0-.965.088-.965.393 0 .306.267.397.746.397.611 0 .944.043 1.3.128 1.444.308 1.381 1.01 1.468 2.497.087 1.4.088 2.625.088 9.285v12.57c0 8.583.044 12.963-3.285 16.336-.872.871-1.532 1.355-2.098 1.662-.745.396-.963.569-.963.787 0 .219.174.352.35.352.216 0 .57-.088.877-.264.918-.434 1.62-.787 2.185-1.141 4.201-2.582 6.522-5.601 7.442-8.273.875-2.453 1.052-5.256 1.052-7.754 0-2.186-.132-4.289-.132-6.172v-8.103c0-6.66 0-7.885.085-9.285.09-1.532.234-2.274 1.417-2.497.523-.085.2-.082.86-.128.522-.045.784-.09.784-.397 0-.305-.305-.393-.918-.393-1.706 0-3.847.135-4.898.135-1.136 0-3.074-.135-5.395-.135zm33.697 0c-.696 0-1.048.087-1.048.35 0 .349.262.44.703.44.524 0 .682.043 1.164.17.964.225 1.196.969 1.285 2.455.084 1.4.084 2.625.084 9.285v7.707c0 4.247.001 7.706-.217 9.545-.134 1.271-.19 2.018-1.064 2.191-.398.089-.507.174-1.166.174-.526 0-.7.134-.7.353 0 .304.307.438.875.438 1.75 0 3.891-.135 4.9-.135 1.182 0 3.116.135 6.006.135.48 0 .83-.134.83-.438 0-.219-.22-.353-.7-.353-.66 0-.8-.085-1.41-.174-1.31-.173-1.62-.965-1.75-2.143-.18-1.886-.18-5.346-.18-9.593v-7.707c0-6.66 0-7.885.09-9.285.09-1.532.24-2.274 1.41-2.497.53-.085.47-.128.91-.128.43 0 .7-.091.7-.44 0-.263-.35-.35-.92-.35-1.66 0-3.63.135-4.72.135-1.275 0-3.417-.135-5.082-.135zm80.682 51.178c-.53 0-.9.464-.9.9 0 .475.36.991.93.991.59 0 .94-.505.94-.992 0-.478-.45-.899-.97-.899zm-85.406.31c-.116.02-.406.03-1.274.034v6.455l-.08-.1c-1.805-2.295-3.535-4.357-5.203-6.355 0 .007-1.105.002-1.244.002.036.313.05 1.794.05 8.85.101-.012.39-.018 1.311-.03-.019-.24-.026-1.307-.037-6.365v-.125s5.28 6.478 5.307 6.508c.087-.015.353-.018 1.224-.018-.037-.313-.054-1.793-.054-8.857zm25.156.007c-.12.012-.49.018-1.63.027v8.307c0 .628-.12 1.271-.28 1.562-.14.231-.33.38-.64.482.01.08.01.29.02 1 1.57-.086 2.53-1.199 2.53-3.019v-8.359zm38.99 0c-.13.012-.49.018-1.63.027v8.853c.13-.014.5-.019 1.68-.03-.03-.314-.05-1.792-.05-8.85zm38.42.656c0 .037-.37.117-.37.117s-1.09.251-1.16.266v1.472c-.03.05-.06.072-.93.088.02.09.03.29.03.723.08-.009.26-.016.81-.028.07.037.08.041.09 3.743 0 1.306.65 1.965 1.94 1.965.55 0 1.12-.139 1.59-.377-.04-.077-.11-.26-.27-.713-.18.134-.39.228-.75.228-.66 0-.98-.52-.98-1.594v-3.162c.03-.05.05-.07 1.72-.088-.02-.089-.03-.29-.03-.726-.13.013-.48.018-1.6.03-.07-.037-.07-.04-.09-1.944zm-21.04.015c-.14.05-.52.138-1.54.368v1.472c-.02.051-.05.072-.93.088.02.09.03.29.03.723.08-.009.26-.016.81-.028.07.035.08.041.09 3.743 0 1.306.65 1.965 1.94 1.965.55 0 1.12-.139 1.59-.377-.04-.077-.11-.26-.26-.715-.22.154-.45.23-.76.23-.66 0-.97-.52-.97-1.594v-3.162c.02-.052.04-.073 1.71-.088-.02-.089-.03-.29-.03-.726-.13.013-.48.018-1.6.03-.05-.028-.07-.057-.08-1.929zm8.45 0c-.14.05-.51.138-1.53.368v1.472c-.03.051-.06.072-.93.088.01.09.02.29.03.723.07-.009.26-.016.81-.028.07.035.07.041.09 3.743 0 1.306.65 1.965 1.94 1.965.55 0 1.12-.139 1.59-.377-.04-.077-.11-.26-.27-.713-.12.097-.34.228-.76.228-.65 0-.97-.52-.97-1.594v-3.162c.03-.052.05-.073 1.71-.088-.01-.089-.03-.29-.03-.726-.12.013-.48.018-1.59.03-.05-.028-.08-.057-.09-1.929zm-85.03 1.776c-1.879 0-3.188 1.295-3.188 3.148 0 2.007 1.357 3.407 3.302 3.407.462 0 1.391-.093 2.414-.676-.054-.074-.16-.259-.44-.774-.397.315-1.037.524-1.663.524a1.899 1.899 0 01-1.375-.584c-.4-.415-.612-.99-.592-1.615.034-.066.04-.07 4.252-.086-.009-1.08-.294-2.023-.844-2.614-.455-.485-1.084-.73-1.867-.73zm25.16 0c-1.88 0-3.19 1.295-3.19 3.148 0 2.007 1.36 3.407 3.3 3.407.47 0 1.4-.093 2.42-.676-.05-.074-.16-.26-.44-.774-.4.315-1.04.524-1.67.524-.52 0-1-.208-1.37-.584-.4-.415-.61-.99-.59-1.615.03-.066.04-.07 4.25-.086-.01-1.08-.29-2.023-.84-2.614-.46-.485-1.09-.73-1.87-.73zm7.29 0c-.47 0-.81.451-1.02.721l-.02.025-.34.5c-.16.004-.19-.988-.19-1.129-.14.021-.53.035-1.57.035.03.273.05 1.427.05 6.287.15-.02.53-.033 1.56-.037-.01-.163-.02-.756-.03-3.086 0-1.224.47-1.953 1.26-1.953.34 0 .54.08.79.203.03-.086.15-.322.58-1.119-.34-.268-.73-.447-1.07-.447zm4.14 0c-1.22 0-2.14.724-2.14 1.685 0 .745.46 1.206 1.19 1.711l.3.205c.53.355 1.03.69 1.03 1.245 0 .655-.55.884-1.02.884-.55 0-1.13-.387-1.39-.59-.04.088-.15.284-.47.82.72.4 1.34.595 2.07.595 1.38 0 2.31-.909 2.31-1.76 0-.682-.37-1.296-1.14-1.87l-.41-.29c-.56-.383-.97-.659-.97-1.118 0-.513.45-.746.87-.746.33 0 .72.15 1.08.397.04-.08.16-.259.49-.719-.42-.269-1.06-.449-1.8-.449zm6.23 0c-1.88 0-3.19 1.295-3.19 3.148 0 2.007 1.36 3.407 3.3 3.407.47 0 1.39-.093 2.41-.676-.05-.074-.16-.259-.44-.774-.39.315-1.03.524-1.66.524-.52 0-1.01-.208-1.37-.584-.4-.415-.61-.99-.6-1.615.04-.066.04-.07 4.26-.086-.01-1.08-.3-2.023-.85-2.614-.45-.485-1.08-.73-1.86-.73zm22.3 0c-.83 0-1.61.321-2.13.883l-.08.084-.07-.106v-.746c-.15.023-.54.037-1.57.037.03.273.05 1.427.05 6.287.14-.02.53-.033 1.56-.037-.01-.178-.02-.864-.03-3.74 0-1.032.62-1.697 1.58-1.697.89 0 1.37.562 1.37 1.58v3.894c.15-.02.53-.033 1.57-.037-.02-.185-.02-.913-.04-4.05 0-1.563-.74-2.352-2.21-2.352zm6.22 0c-1.22 0-2.14.724-2.14 1.685 0 .745.45 1.206 1.19 1.711l.3.205c.53.355 1.02.69 1.02 1.245 0 .655-.54.884-1.01.884-.56 0-1.13-.387-1.39-.59-.04.088-.15.284-.48.82.72.4 1.35.595 2.08.595 1.38 0 2.31-.909 2.31-1.76 0-.682-.37-1.296-1.15-1.87l-.41-.29c-.56-.383-.96-.659-.96-1.118 0-.513.45-.746.86-.746.34 0 .73.15 1.09.397.04-.08.15-.259.48-.719-.42-.269-1.06-.449-1.79-.449zm32.27 0c-1.88 0-3.19 1.295-3.19 3.148 0 2.007 1.36 3.407 3.3 3.407.47 0 1.4-.093 2.42-.676-.05-.07-.16-.254-.44-.774-.4.315-1.04.524-1.67.524-.52 0-1-.208-1.37-.584-.4-.413-.61-.988-.59-1.615.03-.066.04-.07 4.25-.086-.01-1.08-.3-2.023-.85-2.614-.45-.485-1.08-.73-1.86-.73zm-98.785.004c-.123.051-.477.142-1.46.324.102.247.502 1.298 2.284 6.1.093-.018.345-.026 1.082-.026 0-.004-.003-.007-.003-.013 0-.056.04-.196.04-.196.502-1.329 1.022-2.702 1.512-4.28l.01-.046.06.02c.05.021.07.033 1.68 4.318l.09.22c.09-.014.36-.015 1.28-.023v-.004c0-.157 1.94-5.514 2.2-6.203-.15-.002-.49-.049-1.31-.162v.004c0 .028-.06.207-.06.207-.44 1.32-.88 2.677-1.3 4.275-.01.04-.04.075-.04.075-.06.008-.13-.038-.13-.038-.56-1.708-1.12-3.089-1.65-4.427-.1.018-.36.023-1.13.023v.01c0 .053-.06.254-.06.254-.5 1.251-1.023 2.544-1.524 4.11l-.018.048-.053-.023c-.048-.024-.076-.037-1.424-4.313l-.076-.234zm42.895.008c-.12.047-.48.126-1.54.304.12.246.55 1.25 2.42 5.74-.67 2.173-1.3 2.594-2.17 2.594h-.4c.02.101.04.351.04.99.06-.009.21-.016.62-.025 1.72 0 2.49-1.728 2.74-2.295 0 0 2.83-6.366 3.14-7.068-.14-.005-.47-.063-1.31-.223-.03.074-.11.34-.11.34-.47 1.194-1.05 2.673-1.59 4.348-.05.071-.12.064-.17.033-.54-1.727-1.08-3.16-1.6-4.547l-.07-.19zm41.93.105c-.14.021-.53.031-1.56.035.02.187.02.916.03 4.051 0 1.517.74 2.352 2.09 2.352.73 0 1.34-.284 1.98-.924.08-.002.12.017.15.808.14-.02.53-.037 1.57-.037-.03-.274-.05-1.427-.05-6.28-.13.011-.48.021-1.58.03l.05 3.627c0 1.208-.72 1.762-1.38 1.762-.82 0-1.3-.578-1.3-1.582v-3.842zm-8.39.004c-.12.012-.47.022-1.53.03v6.29c.15-.023.54-.039 1.59-.039-.04-.274-.06-1.427-.06-6.28zm-81.286.65c.36 0 .647.114.857.338.277.295.4.782.361 1.405-.035.06-.039.07-2.619.082-.029-.013-.066-.219-.066-.219v-.004c0-.493.155-.908.441-1.2.262-.267.608-.402 1.026-.402zm25.156 0c.36 0 .65.114.86.338.28.295.4.782.36 1.405-.03.06-.04.07-2.62.082-.09-.606.05-1.096.38-1.424.26-.266.6-.4 1.02-.4zm17.66 0c.36 0 .65.114.86.338.28.295.4.782.36 1.405-.04.06-.04.07-2.62.082-.03-.013-.06-.219-.06-.219v-.004c0-.493.15-.908.43-1.2.27-.267.61-.402 1.03-.402zm60.79 0c.36 0 .65.114.86.338.28.295.4.781.36 1.405-.03.06-.04.07-2.62.082-.03-.013-.06-.22-.06-.22 0-.496.15-.91.44-1.204.26-.266.6-.4 1.02-.4zm-78.3 12.616c-.12.011-.47.018-1.52.025v9.31c.15-.023.54-.032 1.57-.037-.02-.177-.02-.866-.03-3.74 0-1.03.61-1.699 1.57-1.699.89 0 1.38.561 1.38 1.582v3.893c.15-.022.53-.03 1.56-.036-.01-.185-.02-.917-.03-4.048 0-1.563-.75-2.354-2.21-2.354-.84 0-1.6.314-2.13.885-.09.004-.13-.01-.16-3.78zm22.14.025v9.312c.15-.024.54 0 1.59 0-.04-.318-.03-9.312-.03-9.312s-.5-.008-1.56 0zm-49.347.004c-.79 0-2.133.463-2.133 2.201v.73c-.027.053-.052.074-1.06.088.02.092.03.29.035.725.081-.01.287-.018.936-.027.09.058.09 5.156.09 5.588.145-.022.535-.03 1.57-.036-.022-.206-.024-1.105-.039-5.462.03-.052.05-.075 1.574-.09-.017-.09-.03-.29-.03-.727-.109.013-.412.02-1.454.031-.067-.03-.074-.037-.09-1.129 0-1.026.82-1.056.912-1.056l.746.12c-.054-.009-.029-.139.201-.79a5.32 5.32 0 00-1.258-.166zm12.267.412c-.26.022-1.41.024-6.972.037l-.26.002.041 1.061c.147-.013.667-.02 2.69-.03.088.058.09 7.202.09 7.826.146-.023.55-.034 1.661-.039 0-.023-.02-.587-.03-7.7.06-.085 2.55-.087 2.81-.087-.02-.106-.03-.368-.03-1.07zm-19.51 2.455c-1.592 0-3.28 1.121-3.28 3.2 0 1.974 1.348 3.357 3.28 3.357 1.934 0 3.288-1.383 3.288-3.358 0-2.078-1.698-3.199-3.289-3.199zm22.59 0c-1.87 0-3.18 1.295-3.18 3.15 0 2.004 1.35 3.407 3.3 3.407.46 0 1.39-.093 2.41-.68-.06-.07-.16-.257-.44-.77-.4.316-1.04.524-1.67.524-.52 0-1-.208-1.37-.584-.4-.414-.61-.988-.59-1.617.04-.066.04-.072 4.25-.086-.01-1.077-.29-2.019-.84-2.61-.46-.487-1.09-.734-1.87-.734zm7.39 0c-2.33 0-3.55 1.663-3.55 3.303 0 1.126.73 3.254 3.46 3.254.57 0 1.23-.18 1.73-.469-.04-.08-.12-.288-.32-.846-.32.217-.73.336-1.19.336-1.22 0-2.04-.948-2.04-2.363 0-1.544 1.02-2.236 2.03-2.236.32 0 .68.084 1.11.255.02-.085.1-.3.36-.92a4.592 4.592 0 00-1.59-.314zm14.7 0c-.84 0-1.6.314-2.13.885l-.08.08-.08-.104v-.746c-.14.024-.53.037-1.57.04.04.271.06 1.422.06 6.283.14-.022.53-.03 1.56-.036-.01-.177-.02-.86-.03-3.74 0-1.03.62-1.699 1.58-1.699.89 0 1.37.561 1.37 1.582v3.893c.15-.022.53-.03 1.57-.036-.02-.185-.03-.917-.04-4.048 0-1.563-.74-2.354-2.21-2.354zm7.06 0c-1.59 0-3.28 1.121-3.28 3.2 0 1.974 1.35 3.357 3.28 3.357 1.94 0 3.29-1.383 3.29-3.358 0-2.078-1.7-3.199-3.29-3.199zm11.23 0c-1.59 0-3.28 1.121-3.28 3.2 0 1.974 1.35 3.357 3.28 3.357 1.94 0 3.29-1.383 3.29-3.358 0-2.078-1.7-3.199-3.29-3.199zm7.39 0c-1.79 0-2.9 1.662-2.9 3.2 0 2.01 1.1 3.357 2.74 3.357.98 0 1.63-.568 2-1.045.11-.022.13-.022.18.898 0 1.43-.78 2.28-2.09 2.28-.88 0-1.6-.184-2.21-.54-.02.113-.08.362-.28.977.75.292 1.71.486 2.62.486 1.3 0 3.5-.479 3.5-3.7v-5.794c-.15.02-.53.03-1.56.033.01.073.01.232.02.694l.01.125-.08-.094c-.46-.53-1.22-.877-1.95-.877zm6.19.006c-.13.048-.49.131-1.54.31.11.244.54 1.248 2.42 5.745-.67 2.171-1.31 2.587-2.18 2.587h-.4c.02.104.04.353.04.993.06-.009.21-.017.63-.028 1.71 0 2.48-1.724 2.74-2.293-.01.007 0-.007 3.13-7.068-.14-.008-.46-.063-1.31-.223-.03.078-.15.41-.15.41-.56 1.467-1.05 2.733-1.55 4.282-.04.061-.1.07-.17.03-.53-1.714-1.06-3.132-1.58-4.507 0-.006-.06-.177-.08-.238zm-76.55.766c1.22 0 1.655 1.252 1.655 2.427 0 .777-.163 2.584-1.656 2.584-1.528 0-1.644-1.978-1.644-2.584 0-1.175.432-2.427 1.644-2.427zm22.57 0c.35 0 .65.116.86.34.27.296.4.78.36 1.402-.04.061-.05.07-2.62.084-.03-.013-.07-.22-.07-.22v-.005c0-.494.15-.906.44-1.199.26-.266.61-.402 1.03-.402zm29.17 0c1.22 0 1.65 1.252 1.65 2.427 0 .777-.16 2.584-1.65 2.584-1.53 0-1.65-1.978-1.65-2.584 0-1.175.43-2.427 1.65-2.427zm11.23 0c1.22 0 1.65 1.252 1.65 2.427 0 .777-.16 2.584-1.65 2.584-1.53 0-1.65-1.978-1.65-2.584 0-1.175.43-2.427 1.65-2.427zm7.77.078c1.13 0 1.64 1.166 1.64 2.25 0 1.203-.45 2.607-1.72 2.607-1.08 0-1.57-1.322-1.57-2.545 0-1.47.6-2.312 1.65-2.312z" fill="#c00"/></svg>