<?xml version="1.0" standalone="no"?>
<!DOCTYPE svg PUBLIC "-//W3C//DTD SVG 20010904//EN"
 "http://www.w3.org/TR/2001/REC-SVG-20010904/DTD/svg10.dtd">
<svg version="1.0" xmlns="http://www.w3.org/2000/svg"
 width="326.000000pt" height="376.000000pt" viewBox="0 0 326.000000 376.000000"
 preserveAspectRatio="xMidYMid meet">

<g transform="translate(0.000000,376.000000) scale(0.100000,-0.100000)"
fill="#000000" stroke="none">
<path d="M1571 3756 c2 -2 56 -6 119 -9 76 -3 97 -2 60 3 -57 8 -187 13 -179
6z"/>
<path d="M1478 3743 c18 -2 45 -2 60 0 15 2 0 4 -33 4 -33 0 -45 -2 -27 -4z"/>
<path d="M1398 3733 c7 -3 16 -2 19 1 4 3 -2 6 -13 5 -11 0 -14 -3 -6 -6z"/>
<path d="M1865 3729 c22 -4 51 -8 65 -7 16 0 11 3 -15 9 -22 4 -51 8 -65 7
-16 0 -11 -3 15 -9z"/>
<path d="M1290 3720 c-10 -6 -2 -7 25 -3 49 7 58 13 19 13 -16 0 -36 -5 -44
-10z"/>
<path d="M2015 3702 c31 -14 83 -24 65 -13 -8 5 -31 11 -50 15 -24 4 -28 3
-15 -2z"/>
<path d="M1188 3693 c6 -2 18 -2 25 0 6 3 1 5 -13 5 -14 0 -19 -2 -12 -5z"/>
<path d="M2107 3679 c7 -7 15 -10 18 -7 3 3 -2 9 -12 12 -14 6 -15 5 -6 -5z"/>
<path d="M1110 3670 c-8 -5 -10 -10 -5 -10 6 0 17 5 25 10 8 5 11 10 5 10 -5
0 -17 -5 -25 -10z"/>
<path d="M1587 3673 c-4 -3 -7 -33 -7 -65 0 -45 3 -58 15 -58 11 0 15 11 15
37 l0 38 27 -38 c40 -57 55 -49 51 26 -3 66 -20 81 -28 25 l-5 -33 -22 38
c-22 36 -33 44 -46 30z"/>
<path d="M1412 3663 l-33 -4 7 -52 c3 -29 7 -58 10 -65 6 -21 24 -3 24 24 0
29 11 31 35 4 10 -11 27 -20 38 -20 18 0 18 1 3 25 -12 19 -14 30 -6 44 7 15
6 23 -6 35 -8 9 -21 15 -27 14 -7 0 -27 -3 -45 -5z m46 -35 c-3 -7 -13 -13
-23 -13 -10 0 -20 6 -22 13 -3 7 5 12 22 12 17 0 25 -5 23 -12z"/>
<path d="M1520 3656 c0 -48 14 -106 26 -106 15 0 19 55 8 98 -7 24 -34 31 -34
8z"/>
<path d="M1737 3652 c-21 -23 -22 -75 -3 -91 18 -15 78 -24 92 -14 7 4 14 19
15 33 3 21 -1 26 -23 28 -16 2 -28 -1 -28 -7 0 -6 5 -11 10 -11 6 0 10 -5 10
-11 0 -6 -12 -9 -27 -7 -22 2 -29 9 -31 30 -4 37 26 53 57 31 15 -10 26 -12
33 -5 13 13 -29 42 -63 42 -14 0 -33 -8 -42 -18z"/>
<path d="M1295 3643 c-44 -7 -48 -15 -34 -77 13 -61 14 -62 92 -40 33 10 18
26 -17 20 -46 -9 -58 11 -17 27 38 14 40 29 4 25 -38 -4 -40 15 -3 25 29 7 43
29 18 26 -7 -1 -26 -4 -43 -6z"/>
<path d="M975 3620 c-3 -6 1 -7 9 -4 18 7 21 14 7 14 -6 0 -13 -4 -16 -10z"/>
<path d="M1937 3612 c-36 -40 -9 -102 45 -102 29 0 56 24 38 35 -6 4 -17 1
-25 -5 -23 -19 -47 -4 -43 26 4 39 32 53 57 29 24 -21 41 -12 25 13 -16 25
-76 27 -97 4z"/>
<path d="M2290 3605 c25 -13 50 -24 55 -24 6 0 -10 11 -35 24 -25 13 -49 24
-55 24 -5 0 10 -11 35 -24z"/>
<path d="M1163 3607 c-17 -7 -35 -15 -38 -19 -10 -10 25 -108 38 -108 32 0 87
23 87 35 0 11 -6 12 -26 5 -14 -6 -32 -10 -40 -10 -25 0 -15 21 16 33 41 15
38 31 -4 23 -44 -9 -57 11 -15 22 18 4 34 13 37 20 5 15 -13 14 -55 -1z"/>
<path d="M915 3590 c-3 -6 1 -7 9 -4 18 7 21 14 7 14 -6 0 -13 -4 -16 -10z"/>
<path d="M2092 3589 c-31 -12 -48 -52 -34 -83 22 -50 103 -51 122 -1 20 53
-33 104 -88 84z m52 -35 c19 -18 19 -20 6 -45 -24 -43 -82 -9 -62 36 13 29 34
32 56 9z"/>
<path d="M858 3564 c-38 -20 -36 -28 2 -9 17 9 30 18 30 20 0 7 -1 6 -32 -11z"/>
<path d="M1066 3571 c-4 -5 -2 -21 4 -35 11 -31 7 -32 -34 -7 -51 32 -62 14
-31 -54 19 -44 28 -56 37 -47 9 9 9 18 0 37 -14 30 -9 31 32 6 51 -32 61 -14
31 52 -25 59 -30 64 -39 48z"/>
<path d="M2367 3569 c7 -7 15 -10 18 -7 3 3 -2 9 -12 12 -14 6 -15 5 -6 -5z"/>
<path d="M2400 3556 c0 -2 35 -26 77 -51 43 -26 102 -66 133 -89 54 -42 95
-69 75 -49 -63 59 -285 207 -285 189z"/>
<path d="M2205 3503 c-11 -26 -21 -51 -23 -55 -3 -5 72 -48 85 -48 2 0 3 7 3
15 0 8 -4 15 -8 15 -5 0 -16 6 -26 13 -17 13 -17 15 -2 45 19 37 21 62 4 62
-7 0 -22 -21 -33 -47z"/>
<path d="M773 3514 c-24 -14 -43 -27 -43 -30 0 -6 67 33 85 48 17 15 1 8 -42
-18z"/>
<path d="M935 3510 c-7 -11 41 -110 54 -110 19 0 18 16 -7 66 -26 54 -35 63
-47 44z"/>
<path d="M2312 3449 l-31 -53 40 -24 c47 -28 76 -19 30 10 l-31 20 23 38 c16
29 19 42 11 50 -9 9 -19 -2 -42 -41z"/>
<path d="M699 3463 c-13 -16 -12 -17 4 -4 9 7 17 15 17 17 0 8 -8 3 -21 -13z"/>
<path d="M836 3459 c-31 -25 -34 -61 -6 -89 27 -27 63 -25 97 4 24 21 26 26
15 50 -10 23 -14 25 -37 14 -30 -14 -35 -43 -5 -33 15 5 18 3 14 -10 -8 -20
-53 -16 -67 6 -16 26 -1 49 33 49 20 0 30 5 30 15 0 22 -43 19 -74 -6z"/>
<path d="M1385 3441 c-267 -48 -507 -173 -701 -367 -423 -420 -505 -1085 -198
-1596 127 -212 318 -389 542 -502 308 -155 673 -184 1000 -81 212 67 396 180
549 336 114 117 174 201 240 335 96 192 136 365 136 589 0 345 -126 654 -368
900 -160 164 -338 275 -550 344 -194 62 -443 78 -650 42z m390 -161 c3 -5 1
-10 -4 -10 -6 0 -11 5 -11 10 0 6 2 10 4 10 3 0 8 -4 11 -10z m-186 -28 c-7
-18 -6 -21 4 -15 6 4 15 8 19 8 3 0 10 4 15 9 5 5 3 6 -4 2 -7 -4 -13 -3 -13
3 0 15 16 22 35 15 12 -5 13 -9 5 -14 -8 -5 -4 -9 9 -13 12 -3 21 -1 21 4 0 5
5 9 11 9 6 0 9 -7 5 -15 -3 -8 -1 -15 4 -15 6 0 10 5 10 11 0 6 7 9 15 5 9 -3
15 0 15 9 0 12 5 12 26 5 19 -8 31 -7 42 2 13 11 15 10 9 -4 -7 -21 -3 -22 24
-7 11 5 17 15 13 22 -4 7 3 2 15 -10 22 -23 46 -30 54 -15 2 4 2 2 1 -5 -2 -7
4 -19 13 -28 14 -14 16 -14 28 2 13 17 14 17 21 -1 4 -11 2 -21 -7 -26 -7 -5
-10 -13 -5 -17 5 -4 11 -2 13 5 3 6 11 12 19 12 9 0 12 -4 9 -10 -3 -5 0 -7 8
-4 8 3 18 -5 25 -18 6 -13 11 -17 11 -10 1 7 -4 23 -10 35 -10 22 -10 22 6 2
9 -11 21 -19 26 -17 5 1 9 -5 9 -13 0 -9 6 -12 15 -9 10 4 13 2 10 -8 -4 -10
4 -13 34 -12 22 0 38 -2 36 -6 -5 -8 22 -35 34 -35 3 0 5 -3 3 -7 -1 -5 2 -8
8 -8 5 0 10 -7 10 -16 0 -12 7 -15 25 -12 13 3 22 2 20 -3 -3 -4 -1 -10 5 -14
5 -3 10 -1 10 4 0 6 5 11 11 11 6 0 8 -9 4 -20 -5 -15 -3 -18 9 -14 12 4 15 2
11 -9 -5 -11 0 -14 19 -12 15 2 24 -1 20 -6 -3 -5 -10 -7 -15 -4 -5 4 -9 1 -9
-5 0 -7 8 -9 19 -5 11 3 25 -1 34 -10 9 -8 28 -15 44 -15 21 0 24 -3 13 -9 -8
-6 -18 -7 -22 -5 -4 3 -6 -1 -3 -8 3 -7 16 -14 30 -14 15 -1 22 2 18 9 -3 6
-1 7 6 3 9 -6 9 -11 0 -22 -6 -8 -8 -14 -4 -14 4 0 2 -7 -5 -15 -15 -18 -8
-29 29 -45 17 -7 33 -21 36 -31 8 -25 24 -24 34 3 4 12 10 17 14 11 4 -6 0
-17 -9 -24 -14 -11 -12 -15 18 -31 18 -10 24 -16 12 -13 -13 3 -26 -1 -34 -10
-10 -12 -10 -15 3 -15 9 0 18 -4 21 -9 4 -5 -3 -7 -14 -4 -11 3 -20 0 -20 -6
0 -10 28 -16 59 -12 7 2 10 -2 7 -7 -3 -6 0 -13 6 -15 8 -3 5 -6 -6 -6 -15 -1
-16 -3 -6 -16 11 -13 15 -13 22 -3 6 9 8 5 6 -12 -2 -14 -7 -28 -13 -32 -6 -5
-5 -8 3 -8 6 0 12 -7 12 -16 0 -10 6 -14 15 -11 8 4 17 2 20 -3 4 -6 -1 -10
-10 -10 -9 0 -13 -5 -10 -10 4 -6 1 -17 -5 -25 -14 -17 0 -21 16 -5 7 7 17 5
30 -4 14 -11 15 -14 4 -14 -8 1 -23 0 -32 0 -16 -2 -16 -4 2 -22 11 -11 25
-20 31 -20 8 0 7 -6 -2 -17 -12 -14 -12 -16 1 -11 8 3 21 0 28 -8 9 -10 8 -15
-6 -23 -16 -10 -15 -10 3 -11 17 0 17 -2 5 -10 -11 -7 -11 -10 -2 -10 7 0 10
-4 7 -10 -3 -5 -1 -10 5 -10 6 0 8 -5 5 -10 -4 -6 -10 -8 -14 -6 -4 3 -5 -8
-3 -24 2 -17 8 -27 13 -24 5 3 9 -1 10 -8 0 -10 2 -10 6 0 2 6 14 12 26 11 21
0 21 -1 2 -9 -12 -5 -14 -9 -6 -9 9 -1 7 -8 -9 -21 -16 -14 -27 -17 -40 -10
-13 7 -22 5 -31 -6 -11 -13 -10 -15 2 -14 33 5 42 1 30 -14 -9 -11 -9 -15 1
-19 7 -3 -2 -8 -19 -12 -36 -8 -38 -12 -22 -35 9 -13 10 -12 5 3 -6 19 -5 20
18 11 8 -3 12 -12 9 -20 -4 -10 0 -12 13 -7 11 3 22 11 26 17 5 7 8 4 8 -6 0
-12 -8 -18 -21 -18 -11 0 -17 -5 -14 -10 4 -6 1 -9 -6 -8 -6 2 -14 -3 -17 -11
-3 -9 0 -11 9 -6 8 5 11 4 6 0 -4 -5 0 -17 10 -27 9 -10 12 -18 7 -18 -12 0
-36 16 -35 24 0 3 -4 16 -10 28 -8 20 -9 19 -3 -7 4 -16 7 -35 7 -42 0 -7 5
-11 11 -10 13 2 18 -61 5 -69 -5 -3 -10 0 -10 5 -1 6 -2 15 -3 20 0 5 -5 13
-10 18 -5 4 -6 3 -2 -4 3 -6 2 -14 -4 -18 -6 -4 -8 -11 -5 -16 4 -5 0 -9 -7
-9 -7 0 -1 -8 15 -18 15 -9 27 -20 27 -24 0 -10 -14 -10 -24 -1 -3 4 -16 8
-27 10 -16 2 -18 1 -7 -11 7 -8 15 -10 16 -5 5 12 22 1 22 -13 0 -6 -11 -8
-26 -5 -19 3 -24 1 -19 -11 4 -12 3 -12 -8 -3 -11 9 -17 7 -28 -6 -9 -11 -10
-14 -2 -9 7 4 21 2 30 -4 17 -10 16 -10 -2 -8 -16 3 -19 -2 -17 -24 1 -16 -2
-28 -8 -28 -6 0 -9 -4 -6 -9 6 -10 -22 -24 -33 -16 -10 5 -8 -26 2 -42 10 -17
49 6 42 24 -2 7 0 13 6 13 6 0 7 5 3 12 -5 7 -3 8 5 4 7 -5 21 0 32 10 10 9
21 15 24 13 2 -3 -11 -46 -29 -97 l-33 -92 51 -7 c28 -4 54 -6 59 -5 30 8 -29
-51 -178 -177 -129 -110 -248 -195 -369 -266 -227 -132 -403 -181 -610 -172
-129 6 -147 9 -229 27 -167 40 -357 129 -512 242 -117 85 -349 324 -323 332 7
3 29 7 49 10 l36 6 -24 76 c-14 41 -22 78 -18 82 3 3 9 1 13 -5 4 -6 37 -46
74 -90 78 -91 163 -168 189 -169 9 -1 24 -4 32 -7 8 -3 18 -3 21 0 7 7 -19 33
-34 33 -6 0 -8 4 -5 10 4 6 -1 7 -11 3 -13 -5 -16 -3 -11 10 4 12 1 17 -9 17
-10 0 -14 6 -10 15 3 8 1 15 -4 15 -6 0 -9 5 -8 12 2 7 -2 12 -9 13 -6 0 -15
4 -20 9 -5 5 -3 6 5 2 7 -4 12 -1 12 8 0 9 -4 16 -10 16 -5 0 -10 6 -10 14 0
8 -4 18 -10 21 -5 3 -7 0 -4 -8 3 -8 0 -18 -6 -22 -7 -4 -10 -1 -9 6 4 21 -11
60 -21 54 -4 -3 -13 2 -20 10 -9 10 -9 15 -1 15 6 0 11 -4 11 -8 0 -5 7 -9 15
-9 8 0 15 4 15 9 0 4 -4 8 -9 8 -5 0 -7 8 -5 17 3 11 -3 23 -15 30 -20 13 -24
2 -8 -24 12 -20 -29 -16 -49 4 -16 16 -16 16 -10 -5 5 -14 3 -22 -4 -22 -13 0
-17 12 -24 69 -3 24 -11 50 -18 59 -11 13 -10 14 8 8 14 -4 21 -2 21 8 0 8 -6
12 -15 8 -10 -3 -13 -1 -8 6 4 7 2 12 -3 12 -6 0 -11 7 -11 15 0 8 -5 15 -11
15 -5 0 -7 -5 -4 -10 4 -6 -5 -10 -19 -10 -14 0 -26 4 -26 10 0 5 6 7 14 4 11
-4 13 0 9 17 -4 15 -3 20 5 15 7 -4 12 -3 12 3 0 6 8 7 17 4 15 -6 16 -5 3 9
-11 11 -19 13 -27 6 -10 -8 -13 -6 -13 5 0 9 8 18 17 20 15 4 14 6 -5 12 -18
6 -20 10 -10 16 9 6 9 9 1 9 -16 0 -12 38 4 44 10 4 10 11 2 30 -7 14 -15 25
-18 24 -18 -2 -31 3 -31 12 0 6 12 8 27 5 23 -4 25 -4 8 4 -11 5 -15 10 -10
10 6 1 4 5 -4 10 -12 8 -12 14 0 43 17 42 20 60 8 52 -5 -3 -6 -10 -3 -16 4
-6 -2 -6 -15 1 -23 13 -28 22 -9 18 21 -4 20 31 -1 38 -12 3 -21 13 -21 21 0
8 4 12 10 9 6 -3 10 1 10 11 0 13 3 14 15 4 13 -11 15 -9 15 13 0 21 -4 24
-22 21 l-23 -5 23 10 c22 10 31 41 12 41 -5 0 -10 4 -10 10 0 5 7 7 16 3 10
-4 17 1 21 16 3 11 12 21 21 21 12 0 13 3 4 12 -9 9 -15 8 -26 -8 -23 -30 -26
-13 -6 29 10 20 15 37 12 37 -9 0 21 20 31 20 4 0 7 -8 8 -17 0 -14 2 -15 6
-3 3 8 12 18 19 22 6 5 10 17 7 28 -3 12 1 22 11 26 9 3 13 10 10 16 -3 5 -11
4 -20 -3 -9 -7 -14 -8 -14 -1 0 6 10 14 22 18 21 6 20 7 -8 19 l-29 12 43 13
c23 7 42 19 42 26 0 19 19 27 35 14 11 -10 13 -7 9 14 -3 16 0 26 7 26 7 0 10
3 6 6 -8 9 16 33 27 26 5 -3 6 0 2 7 -5 7 1 20 13 30 11 10 17 22 13 27 -4 4
0 3 9 -4 12 -9 20 -8 35 4 10 8 13 13 7 9 -8 -4 -13 0 -13 9 0 10 9 16 24 16
13 0 26 7 30 15 3 8 1 15 -4 15 -18 0 -10 18 10 23 11 3 18 1 15 -3 -3 -5 -1
-11 3 -14 5 -3 9 4 8 15 0 11 -7 24 -15 28 -11 7 -9 10 8 16 13 4 27 1 37 -9
22 -22 25 -20 14 10 -9 22 -8 25 5 20 13 -5 15 -1 10 17 -7 20 -6 21 7 4 11
-15 18 -16 46 -6 17 6 32 15 32 21 0 5 5 6 12 2 7 -5 9 0 6 14 -6 23 20 41 32
21 5 -7 13 -4 23 11 11 17 23 21 41 18 18 -4 26 -1 26 9 0 9 5 11 13 7 6 -4 4
2 -6 13 -21 25 -11 34 28 27 19 -3 38 2 56 15 32 24 39 26 39 10 0 -5 -5 -7
-11 -3 -8 4 -8 0 0 -15 7 -11 14 -21 17 -21 3 0 2 5 -2 12 -5 8 0 9 15 5 20
-5 22 -3 17 21 -5 18 -4 22 3 13 7 -11 11 -10 20 5 6 11 11 14 11 7 0 -7 7
-10 17 -6 12 5 15 2 10 -10 -3 -9 -2 -17 4 -17 6 0 9 8 8 18 -3 30 1 35 16 22
8 -7 13 -16 10 -19 -2 -4 2 -8 9 -8 8 0 12 6 9 13 -3 9 2 12 17 9 15 -3 24 1
27 15 3 10 13 18 23 17 15 -1 16 -5 9 -25z m368 -4 c-3 -8 -6 -5 -6 6 -1 11 2
17 5 13 3 -3 4 -12 1 -19z m-657 -34 c0 -8 -5 -12 -10 -9 -6 4 -8 11 -5 16 9
14 15 11 15 -7z m865 -64 c3 -5 2 -10 -4 -10 -5 0 -13 5 -16 10 -3 6 -2 10 4
10 5 0 13 -4 16 -10z m199 -68 c3 -5 -1 -9 -9 -9 -8 0 -12 4 -9 9 3 4 7 8 9 8
2 0 6 -4 9 -8z m-1479 -142 c3 -5 1 -10 -4 -10 -6 0 -11 5 -11 10 0 6 2 10 4
10 3 0 8 -4 11 -10z m1860 -420 c3 -5 1 -10 -4 -10 -6 0 -11 5 -11 10 0 6 2
10 4 10 3 0 8 -4 11 -10z m-2210 -220 c3 -5 2 -10 -4 -10 -5 0 -13 5 -16 10
-3 6 -2 10 4 10 5 0 13 -4 16 -10z m2226 -363 c-10 -9 -11 -8 -5 6 3 10 9 15
12 12 3 -3 0 -11 -7 -18z m-2178 -58 c-4 -15 -8 -17 -14 -8 -8 14 -3 29 11 29
4 0 6 -9 3 -21z m222 -330 c11 -17 -1 -21 -15 -4 -8 9 -8 15 -2 15 6 0 14 -5
17 -11z m30 -19 c3 -5 1 -10 -4 -10 -6 0 -11 5 -11 10 0 6 2 10 4 10 3 0 8 -4
11 -10z"/>
<path d="M1300 3180 c-12 -8 -10 -10 8 -10 13 0 20 4 17 10 -7 12 -6 12 -25 0z"/>
<path d="M2160 3109 c0 -5 -5 -7 -12 -3 -7 4 -8 3 -4 -4 4 -6 13 -9 21 -6 8 4
12 10 9 15 -7 12 -14 11 -14 -2z"/>
<path d="M955 2862 c-77 -69 -141 -130 -143 -134 -2 -4 6 -21 17 -37 38 -53
54 -112 54 -202 1 -84 0 -90 -46 -180 -139 -280 -107 -594 83 -802 122 -132
239 -163 440 -113 134 32 159 27 229 -49 l50 -55 22 31 c12 17 40 44 62 60 50
37 91 37 212 4 49 -14 111 -25 137 -25 61 0 160 31 204 65 26 20 39 24 47 16
8 -8 7 -11 -3 -11 -7 0 -11 -3 -7 -6 3 -3 27 11 54 32 26 22 56 46 67 54 10 8
26 24 35 34 9 10 25 26 35 35 10 9 26 24 35 34 9 10 26 30 39 43 27 31 28 54
2 54 -11 0 -20 -7 -20 -16 0 -8 -4 -13 -9 -9 -6 3 -15 -5 -22 -17 -18 -33 -37
-50 -44 -38 -7 11 19 66 35 73 6 3 5 4 -2 3 -18 -4 -59 -79 -47 -86 5 -4 -5
-19 -21 -34 -25 -22 -29 -30 -19 -42 7 -9 8 -14 1 -14 -6 0 -13 6 -15 13 -4 9
-6 9 -6 0 -1 -7 -1 -16 0 -19 0 -4 -10 -12 -23 -19 -13 -6 -22 -17 -20 -24 1
-7 -2 -9 -8 -6 -7 4 -14 -2 -17 -14 -3 -11 -9 -18 -14 -15 -5 3 9 26 32 52
186 211 221 512 92 786 -46 98 -48 104 -48 192 1 83 3 96 35 160 19 38 36 72
38 75 1 4 -61 65 -140 138 l-143 131 -45 -44 c-77 -75 -190 -119 -268 -104
-72 13 -148 53 -207 109 -30 29 -55 47 -55 40 0 -23 -77 -95 -125 -117 -79
-37 -126 -40 -198 -14 -73 27 -139 70 -169 111 -12 16 -24 29 -27 28 -3 0 -69
-57 -146 -127z m186 62 c62 -65 200 -121 269 -109 60 10 156 62 189 102 l29
36 59 -47 c67 -52 169 -96 222 -96 76 0 185 47 247 105 20 20 41 34 45 33 4
-2 47 -39 95 -83 48 -44 104 -96 125 -115 l39 -35 -31 -61 c-65 -131 -62 -232
12 -383 48 -99 69 -194 69 -314 0 -125 -21 -213 -72 -309 -87 -164 -206 -256
-340 -266 -54 -4 -91 1 -176 23 -133 35 -162 31 -231 -31 l-50 -45 -61 50
c-72 60 -101 64 -233 29 -45 -12 -112 -22 -148 -22 -131 0 -264 96 -348 254
-57 108 -71 158 -78 280 -8 142 13 244 75 370 47 95 47 95 47 200 0 97 -2 110
-31 171 l-32 66 124 109 c68 60 123 112 124 117 0 17 29 4 61 -29z"/>
<path d="M1590 2730 c0 -59 -14 -64 -37 -15 -19 40 -19 40 -67 20 -41 -17 -42
-23 -20 -66 21 -42 12 -46 -29 -15 l-35 27 -31 -37 -30 -38 37 -32 c40 -36 37
-38 -20 -25 -35 8 -37 7 -47 -22 -18 -51 -14 -65 22 -73 l32 -7 -33 -9 c-32
-8 -33 -11 -30 -51 l3 -42 43 0 c50 0 53 -9 12 -30 -36 -18 -36 -18 -9 -61 24
-40 27 -40 73 -13 41 24 45 17 16 -26 -11 -16 -20 -33 -20 -37 0 -3 16 -16 36
-29 l36 -22 24 29 c13 16 23 32 24 37 0 13 38 7 43 -7 3 -8 4 -30 1 -50 -3
-30 -1 -36 13 -35 10 0 13 3 7 5 -7 3 -10 21 -6 49 4 41 3 44 -23 51 -29 7
-30 6 -70 -49 -14 -20 -15 -19 -73 19 -2 1 7 20 20 42 12 23 20 44 16 48 -4 3
-23 -3 -43 -15 -20 -11 -39 -21 -43 -21 -7 0 -42 52 -42 62 0 2 16 12 35 22
53 29 46 46 -16 39 l-50 -6 3 39 c3 37 5 39 38 42 54 5 56 18 6 31 -47 11 -51
18 -39 59 5 22 10 23 49 17 64 -9 73 2 29 39 -35 30 -37 34 -24 54 21 33 37
34 74 6 46 -35 60 -24 35 26 -24 48 -25 56 -2 63 9 2 25 8 34 12 13 5 22 -3
38 -35 12 -23 26 -40 33 -37 7 2 13 27 15 56 l3 52 37 -3 c36 -3 37 -4 40 -48
5 -72 37 -80 71 -19 21 37 24 39 44 26 12 -7 28 -17 35 -21 10 -6 8 -15 -8
-40 -22 -37 -26 -56 -9 -56 5 0 8 4 4 9 -3 5 4 26 16 46 12 20 20 37 18 39 -2
1 -21 13 -41 25 l-37 22 -26 -41 c-14 -23 -31 -40 -38 -37 -7 2 -13 26 -15 55
l-3 52 -50 0 -49 0 0 -50z"/>
<path d="M1855 2644 l-30 -26 32 21 31 21 21 -26 c28 -35 27 -40 -14 -66 -19
-13 -33 -27 -31 -33 2 -5 26 -9 54 -8 l50 2 4 -35 c4 -31 1 -35 -26 -43 -29
-8 -29 -9 -6 -10 42 -1 51 11 42 55 l-8 39 -55 -3 -54 -2 39 33 c42 36 42 51
-1 89 -18 16 -20 16 -48 -8z"/>
<path d="M1760 2606 c0 -2 8 -10 18 -17 15 -13 16 -12 3 4 -13 16 -21 21 -21
13z"/>
<path d="M1494 2578 l-19 -23 23 19 c21 18 27 26 19 26 -2 0 -12 -10 -23 -22z"/>
<path d="M1643 2568 c-12 -16 -31 -24 -57 -26 -42 -2 -60 -12 -38 -19 6 -3 12
-12 12 -22 0 -9 5 -22 10 -27 8 -8 8 -19 0 -38 -14 -39 -4 -49 30 -29 31 18
52 11 32 -9 -7 -7 -12 -22 -12 -35 0 -20 -4 -22 -32 -19 -46 5 -58 -2 -58 -33
l0 -26 105 -3 105 -3 0 33 c-1 18 -9 49 -19 68 -15 31 -15 38 -3 58 13 20 13
25 -2 41 -9 9 -16 31 -16 48 0 65 -24 81 -57 41z m17 -128 c0 -5 -4 -10 -10
-10 -5 0 -10 5 -10 10 0 6 5 10 10 10 6 0 10 -4 10 -10z m-9 -73 c-13 -13 -26
-3 -16 12 3 6 11 8 17 5 6 -4 6 -10 -1 -17z"/>
<path d="M1811 2553 c7 -12 15 -20 18 -17 3 2 -3 12 -13 22 -17 16 -18 16 -5
-5z"/>
<path d="M1853 2430 c0 -25 2 -35 4 -22 2 12 2 32 0 45 -2 12 -4 2 -4 -23z"/>
<path d="M1432 2435 c0 -16 2 -22 5 -12 2 9 2 23 0 30 -3 6 -5 -1 -5 -18z"/>
<path d="M1890 2430 c0 -5 18 -15 40 -21 33 -10 40 -17 41 -38 l0 -26 10 23
c12 31 5 40 -36 48 -19 3 -35 10 -35 15 0 5 -4 9 -10 9 -5 0 -10 -4 -10 -10z"/>
<path d="M1456 2337 c3 -10 9 -15 12 -12 3 3 0 11 -7 18 -10 9 -11 8 -5 -6z"/>
<path d="M1865 2331 c-3 -5 11 -23 30 -39 l36 -29 -21 -26 c-26 -33 -31 -33
-70 -1 -42 36 -61 20 -37 -31 23 -48 22 -51 -14 -66 -28 -11 -33 -10 -45 6 -8
10 -14 24 -14 31 0 18 -24 34 -39 25 -7 -5 -15 -30 -17 -57 -4 -54 1 -50 11 9
3 20 10 37 15 37 5 0 19 -18 30 -40 l20 -40 40 20 c45 23 47 28 24 71 -20 39
-11 48 24 23 48 -36 50 -36 79 2 l27 37 -39 34 c-43 38 -44 37 40 17 20 -5 25
-2 24 12 0 11 -3 14 -5 8 -3 -8 -16 -9 -42 -3 -47 11 -50 11 -57 0z"/>
<path d="M1744 2254 c-18 -14 -18 -15 4 -4 12 6 22 13 22 15 0 8 -5 6 -26 -11z"/>
<path d="M1987 2123 c-3 -5 14 -6 38 -5 l44 4 3 -49 c2 -40 6 -48 23 -49 15
-1 16 0 3 3 -14 3 -18 15 -18 54 l0 49 -44 0 c-25 0 -47 -3 -49 -7z"/>
<path d="M1180 2070 c0 -27 -4 -50 -8 -50 -5 0 -17 18 -27 40 -10 22 -22 40
-26 40 -4 0 4 -20 18 -45 14 -25 30 -44 37 -42 6 2 12 25 14 50 l3 47 39 0 39
0 3 -47 c3 -43 6 -48 28 -50 22 -1 22 -1 3 4 -20 4 -23 11 -23 54 l0 49 -50 0
-50 0 0 -50z"/>
<path d="M1357 2092 c-3 -4 15 -16 39 -28 24 -11 41 -17 39 -13 -9 13 -74 48
-78 41z"/>
<path d="M2158 2093 c7 -3 16 -2 19 1 4 3 -2 6 -13 5 -11 0 -14 -3 -6 -6z"/>
<path d="M1981 2063 c0 -17 -7 -34 -13 -36 -10 -4 -10 -6 0 -6 16 -1 25 21 19
51 -3 18 -5 16 -6 -9z"/>
<path d="M1040 2058 c1 -7 7 -24 15 -38 26 -45 17 -53 -23 -22 l-38 31 -27
-34 c-15 -19 -27 -38 -27 -43 0 -4 14 -18 30 -30 36 -27 39 -42 8 -36 -22 4
-21 4 1 -6 43 -19 44 10 3 46 l-37 33 27 27 26 27 32 -26 c52 -44 69 -33 39
25 -11 21 -17 43 -14 48 3 6 1 10 -4 10 -6 0 -11 -6 -11 -12z"/>
<path d="M1330 2050 c-6 -11 -8 -20 -6 -20 3 0 10 9 16 20 6 11 8 20 6 20 -3
0 -10 -9 -16 -20z"/>
<path d="M1410 2010 c-6 -11 -8 -20 -6 -20 3 0 10 9 16 20 6 11 8 20 6 20 -3
0 -10 -9 -16 -20z"/>
<path d="M1765 1999 l-26 -32 32 -33 c18 -19 36 -34 41 -34 4 0 -9 15 -28 33
l-36 33 24 29 25 28 37 -28 c30 -23 39 -26 49 -15 9 10 9 11 -1 6 -8 -5 -27 3
-47 18 -18 14 -36 26 -38 26 -3 0 -17 -14 -32 -31z"/>
<path d="M1440 1990 c-14 -11 -31 -18 -37 -15 -7 2 -13 0 -13 -5 0 -16 20 -12
51 11 16 11 37 18 45 15 8 -3 12 -2 9 4 -9 15 -27 12 -55 -10z"/>
<path d="M1512 1958 c7 -15 15 -23 17 -17 2 6 -4 18 -13 27 -15 15 -15 15 -4
-10z"/>
<path d="M1287 1933 c-6 -18 -16 -23 -42 -23 -43 0 -46 -7 -75 -148 -16 -78
-20 -116 -13 -123 6 -6 29 -13 51 -16 l39 -5 11 48 c33 146 43 213 40 249 -3
34 -4 37 -11 18z m-33 -73 c30 -11 34 -30 7 -30 -30 0 -51 11 -51 26 0 17 10
17 44 4z m5 -66 c3 -3 0 -8 -5 -13 -12 -12 -57 6 -49 19 6 9 42 5 54 -6z m-59
-43 c0 -6 -4 -13 -10 -16 -5 -3 -10 1 -10 9 0 9 5 16 10 16 6 0 10 -4 10 -9z
m30 -6 c0 -8 -4 -15 -10 -15 -5 0 -10 7 -10 15 0 8 5 15 10 15 6 0 10 -7 10
-15z m30 -4 c0 -6 -4 -13 -10 -16 -5 -3 -10 1 -10 9 0 9 5 16 10 16 6 0 10 -4
10 -9z m-70 -30 c0 -6 -4 -13 -10 -16 -5 -3 -10 1 -10 9 0 9 5 16 10 16 6 0
10 -4 10 -9z m30 -6 c0 -8 -4 -15 -10 -15 -5 0 -10 7 -10 15 0 8 5 15 10 15 6
0 10 -7 10 -15z m30 -10 c0 -8 -4 -15 -10 -15 -5 0 -10 7 -10 15 0 8 5 15 10
15 6 0 10 -7 10 -15z m-70 -31 c0 -8 -4 -12 -10 -9 -5 3 -10 10 -10 16 0 5 5
9 10 9 6 0 10 -7 10 -16z m30 1 c0 -8 -4 -15 -10 -15 -5 0 -10 7 -10 15 0 8 5
15 10 15 6 0 10 -7 10 -15z m30 -10 c0 -8 -4 -15 -10 -15 -5 0 -10 7 -10 15 0
8 5 15 10 15 6 0 10 -7 10 -15z"/>
<path d="M1476 1907 c-20 -16 -26 -26 -17 -31 6 -4 10 -3 9 2 -2 5 8 19 22 30
34 29 22 28 -14 -1z"/>
<path d="M1960 1871 c0 -54 -2 -60 -22 -63 -24 -3 -36 -34 -20 -50 6 -6 8 0 5
17 l-6 26 79 -3 c62 -2 79 -6 79 -18 0 -11 -17 -16 -70 -21 -65 -5 -62 -6 38
-7 l107 -2 0 30 c0 25 -4 30 -25 30 -24 0 -25 3 -25 60 l0 60 -70 0 -70 0 0
-59z m120 4 l0 -45 -50 0 -50 0 0 45 0 45 50 0 50 0 0 -45z"/>
<path d="M1718 1903 c7 -3 16 -2 19 1 4 3 -2 6 -13 5 -11 0 -14 -3 -6 -6z"/>
<path d="M903 1885 c-3 -9 -3 -19 1 -22 3 -4 6 1 6 10 0 8 10 18 23 20 l22 4
-23 2 c-12 0 -25 -6 -29 -14z"/>
<path d="M1768 1893 c7 -3 16 -2 19 1 4 3 -2 6 -13 5 -11 0 -14 -3 -6 -6z"/>
<path d="M2345 1890 c3 -5 8 -10 11 -10 2 0 4 5 4 10 0 6 -5 10 -11 10 -5 0
-7 -4 -4 -10z"/>
<path d="M1547 1878 c6 -7 13 -27 16 -45 5 -25 3 -33 -11 -36 -12 -3 -11 -4 3
-3 15 1 19 7 18 26 -5 46 -13 70 -24 70 -8 0 -8 -4 -2 -12z"/>
<path d="M2298 1883 c7 -3 16 -2 19 1 4 3 -2 6 -13 5 -11 0 -14 -3 -6 -6z"/>
<path d="M1493 1873 c9 -2 23 -2 30 0 6 3 -1 5 -18 5 -16 0 -22 -2 -12 -5z"/>
<path d="M891 1832 c-1 -17 6 -24 29 -28 17 -4 30 -10 30 -15 0 -5 9 -9 21 -9
32 0 12 18 -27 26 -23 4 -39 14 -44 28 -9 21 -9 21 -9 -2z"/>
<path d="M1691 1834 c0 -11 3 -14 6 -6 3 7 2 16 -1 19 -3 4 -6 -2 -5 -13z"/>
<path d="M2370 1822 c0 -6 -8 -13 -17 -15 -16 -4 -16 -5 -1 -6 18 -1 34 16 24
26 -3 4 -6 1 -6 -5z"/>
<path d="M1750 1800 c0 -5 9 -10 21 -10 11 0 17 5 14 10 -3 6 -13 10 -21 10
-8 0 -14 -4 -14 -10z"/>
<path d="M2287 1793 c-10 -10 -8 -23 4 -23 5 0 8 4 4 9 -3 5 3 12 12 14 14 4
15 5 2 6 -9 0 -19 -2 -22 -6z"/>
<path d="M1475 1780 c-7 -11 0 -14 55 -28 31 -7 35 -11 32 -38 -5 -35 3 -30
12 8 6 26 4 28 -41 40 -38 9 -43 13 -27 19 18 7 18 8 -3 8 -12 1 -25 -4 -28
-9z"/>
<path d="M1691 1758 c2 -30 2 -30 6 -6 3 18 12 28 26 31 18 4 17 5 -5 6 -25 1
-28 -2 -27 -31z"/>
<path d="M892 1743 c1 -37 1 -37 5 -6 3 23 10 33 26 36 18 4 17 5 -5 6 -26 1
-28 -2 -26 -36z"/>
<path d="M2328 1763 c7 -3 16 -2 19 1 4 3 -2 6 -13 5 -11 0 -14 -3 -6 -6z"/>
<path d="M2365 1750 c3 -5 8 -10 11 -10 2 0 4 5 4 10 0 6 -5 10 -11 10 -5 0
-7 -4 -4 -10z"/>
<path d="M1895 1710 l-16 -30 151 0 c82 0 150 2 150 5 0 2 -5 16 -12 30 -11
25 -12 25 -134 25 l-123 0 -16 -30z m64 -2 c-8 -14 -14 -18 -17 -10 -2 6 -11
12 -20 13 -10 1 -7 4 8 9 39 13 41 11 29 -12z m161 0 c0 -19 -2 -20 -10 -8
-13 19 -13 30 0 30 6 0 10 -10 10 -22z m-52 5 c-10 -2 -28 -2 -40 0 -13 2 -5
4 17 4 22 1 32 -1 23 -4z"/>
<path d="M1763 1703 c16 -3 25 -9 21 -15 -4 -7 -2 -8 4 -4 22 14 12 26 -20 25
-31 -2 -31 -2 -5 -6z"/>
<path d="M958 1693 c32 -4 33 -5 15 -19 -17 -14 -16 -14 5 -4 34 16 26 30 -15
28 l-38 -1 33 -4z"/>
<path d="M1455 1679 c-4 -5 9 -25 29 -42 l36 -32 -24 -29 -24 -29 -32 26 c-51
43 -69 32 -45 -27 8 -19 15 -38 15 -40 0 -5 -55 -36 -63 -36 -2 0 -12 18 -22
40 -12 26 -25 40 -37 40 -10 0 -18 -4 -18 -10 0 -5 6 -7 14 -4 10 4 22 -8 36
-35 11 -23 23 -41 26 -41 2 0 22 9 44 20 l38 20 -20 41 c-10 22 -17 43 -14 46
3 3 21 -6 40 -21 19 -14 37 -26 39 -26 3 0 17 16 32 36 l27 36 -36 30 c-20 16
-34 34 -31 39 4 5 4 9 1 9 -3 0 -8 -5 -11 -11z"/>
<path d="M2250 1681 c0 -5 16 -19 35 -32 23 -15 33 -29 29 -39 -4 -12 -3 -13
8 -2 11 11 9 16 -7 28 -11 8 -30 24 -42 34 -13 11 -23 16 -23 11z"/>
<path d="M2288 1683 c7 -3 16 -2 19 1 4 3 -2 6 -13 5 -11 0 -14 -3 -6 -6z"/>
<path d="M1500 1670 c33 -11 60 -12 60 -2 0 4 -19 8 -43 8 -34 2 -37 0 -17 -6z"/>
<path d="M2328 1673 c6 -2 18 -2 25 0 6 3 1 5 -13 5 -14 0 -19 -2 -12 -5z"/>
<path d="M930 1650 c-8 -5 -12 -12 -9 -15 4 -3 12 1 19 10 14 17 11 19 -10 5z"/>
<path d="M939 1605 c17 -33 31 -51 31 -40 0 6 -10 21 -21 35 -13 17 -17 18
-10 5z"/>
<path d="M1050 1610 c0 -5 5 -10 11 -10 5 0 7 5 4 10 -3 6 -8 10 -11 10 -2 0
-4 -4 -4 -10z"/>
<path d="M2187 1603 c-4 -3 -7 -11 -7 -17 0 -6 4 -5 9 3 8 12 16 10 46 -13
l37 -29 21 24 22 23 -22 -18 c-21 -18 -23 -17 -56 8 -37 28 -40 29 -50 19z"/>
<path d="M994 1584 c-18 -14 -18 -15 4 -4 12 6 22 13 22 15 0 8 -5 6 -26 -11z"/>
<path d="M1029 1559 c-17 -24 -19 -33 -9 -42 10 -9 11 -9 6 1 -4 6 2 26 14 42
12 17 19 30 16 30 -2 0 -14 -14 -27 -31z"/>
<path d="M1218 1573 c12 -2 32 -2 45 0 12 2 2 4 -23 4 -25 0 -35 -2 -22 -4z"/>
<path d="M1929 1553 c-13 -16 -12 -17 4 -4 9 7 17 15 17 17 0 8 -8 3 -21 -13z"/>
<path d="M1112 1525 c-22 -34 -39 -42 -58 -27 -5 4 -1 -1 10 -11 10 -10 20
-16 20 -15 1 2 17 22 35 46 18 23 29 42 24 42 -4 0 -18 -16 -31 -35z"/>
<path d="M1977 1539 c4 -13 8 -18 11 -10 2 7 -1 18 -6 23 -8 8 -9 4 -5 -13z"/>
<path d="M2074 1548 c-4 -7 -3 -8 5 -4 6 4 20 2 29 -6 15 -12 16 -11 3 5 -16
20 -27 22 -37 5z"/>
<path d="M1166 1543 c6 -4 14 -15 17 -23 5 -11 6 -9 4 4 -1 11 -9 21 -17 23
-10 3 -11 2 -4 -4z"/>
<path d="M1170 1475 c0 -14 4 -25 9 -25 4 0 6 11 3 25 -2 14 -6 25 -8 25 -2 0
-4 -11 -4 -25z"/>
<path d="M1260 1461 c0 -6 -15 -12 -32 -14 -32 -4 -32 -4 5 -5 27 -2 37 2 37
13 0 8 -2 15 -5 15 -3 0 -5 -4 -5 -9z"/>
<path d="M1980 1458 c0 -5 20 -8 45 -8 25 0 45 3 45 8 0 4 -20 7 -45 7 -25 0
-45 -3 -45 -7z"/>
<path d="M910 2899 c0 -5 5 -7 10 -4 6 3 10 8 10 11 0 2 -4 4 -10 4 -5 0 -10
-5 -10 -11z"/>
<path d="M2457 2881 c-4 -17 -3 -21 5 -13 5 5 8 16 6 23 -3 8 -7 3 -11 -10z"/>
<path d="M2565 2740 c4 -6 11 -8 16 -5 14 9 11 15 -7 15 -8 0 -12 -5 -9 -10z"/>
<path d="M727 2719 c4 -15 8 -17 14 -8 8 14 3 29 -11 29 -4 0 -6 -9 -3 -21z"/>
<path d="M2720 2175 c0 -8 4 -15 10 -15 5 0 7 7 4 15 -4 8 -8 15 -10 15 -2 0
-4 -7 -4 -15z"/>
<path d="M686 1782 c-2 -4 -1 -14 5 -22 7 -12 9 -10 9 8 0 23 -5 28 -14 14z"/>
<path d="M876 1459 c9 -10 22 -19 27 -19 5 0 16 -8 24 -17 13 -16 14 -15 8 12
-8 38 -14 43 -25 25 -6 -8 -10 -10 -10 -4 0 7 -9 14 -21 17 -20 5 -20 5 -3
-14z"/>
<path d="M954 1415 c3 -22 36 -43 60 -38 15 3 17 2 8 -5 -10 -7 -4 -15 25 -32
93 -57 221 -113 239 -106 8 3 13 2 10 -3 -10 -16 227 -77 270 -68 14 2 21 0
17 -6 -4 -6 0 -8 9 -4 9 3 20 1 26 -5 5 -5 20 -7 33 -3 13 4 44 9 69 10 51 2
100 15 210 52 64 22 177 74 128 59 -12 -3 -15 -1 -11 10 7 20 -4 17 -28 -7
-15 -15 -28 -19 -49 -14 -17 4 -31 2 -36 -6 -4 -8 -3 -9 4 -5 8 5 10 1 5 -9
-4 -11 -8 -13 -13 -5 -3 6 -14 8 -23 4 -9 -3 -15 -10 -12 -14 3 -5 1 -11 -5
-15 -5 -3 -10 -1 -10 4 0 6 -7 11 -15 11 -8 0 -15 -5 -15 -11 0 -6 -6 -9 -14
-6 -7 3 -26 -1 -41 -9 -31 -16 -48 -19 -25 -4 9 6 10 10 3 10 -6 0 -15 -4 -18
-10 -8 -13 -72 -13 -79 -1 -5 7 -41 8 -41 1 0 -1 -13 -3 -30 -5 -16 -2 -34 -4
-40 -6 -17 -5 -75 12 -75 22 0 6 -4 8 -9 4 -5 -3 -13 0 -16 5 -5 8 -13 6 -24
-4 -16 -15 -20 -14 -41 4 -13 11 -28 20 -33 20 -6 0 -2 -7 9 -15 17 -13 16
-14 -14 -4 -26 9 -32 15 -27 33 2 11 2 15 -1 8 -4 -8 -10 -9 -17 -4 -17 13
-57 22 -57 12 0 -4 -9 -6 -20 -3 -17 5 -18 8 -8 21 12 14 11 14 -10 1 -20 -12
-24 -12 -32 1 -5 8 -10 11 -10 5 0 -5 -6 -3 -13 5 -7 8 -21 22 -31 30 -18 13
-19 13 -12 0 4 -8 -1 -5 -10 8 -9 12 -28 22 -43 23 -14 0 -20 3 -13 6 17 7
-34 34 -57 31 -10 -2 -17 5 -19 20 -2 12 -9 22 -17 22 -7 0 -12 -7 -11 -15z
m696 -249 c0 -3 -4 -8 -10 -11 -5 -3 -10 -1 -10 4 0 6 5 11 10 11 6 0 10 -2
10 -4z"/>
<path d="M2270 1400 c-6 -11 -15 -18 -20 -15 -5 3 -11 1 -15 -5 -4 -6 -11 -8
-16 -5 -5 4 -9 -1 -9 -11 0 -11 -6 -15 -18 -12 -17 5 -46 -15 -36 -25 3 -2 -5
-7 -16 -10 -17 -4 -20 -2 -16 11 3 9 -5 4 -19 -13 -28 -34 -32 -47 -10 -39 8
4 15 10 15 16 0 5 4 7 9 4 11 -7 173 95 179 112 6 20 -16 14 -28 -8z"/>
<path d="M643 3424 l-28 -25 33 22 c17 13 32 24 32 26 0 8 -11 1 -37 -23z"/>
<path d="M2415 3389 c-41 -55 -42 -53 27 -93 38 -23 45 -2 7 24 -39 29 -24 52
16 26 37 -24 46 -9 12 18 -34 28 -24 41 14 19 37 -22 51 -8 19 18 -54 43 -56
42 -95 -12z"/>
<path d="M747 3404 c-3 -4 0 -16 8 -28 23 -32 18 -38 -21 -21 -36 15 -54 13
-54 -7 0 -14 59 -88 71 -88 14 0 11 22 -8 42 -15 16 -15 18 0 18 9 0 28 -5 42
-12 18 -8 29 -8 36 -1 8 8 2 24 -21 57 -33 46 -41 52 -53 40z"/>
<path d="M569 3363 c-13 -16 -12 -17 4 -4 16 13 21 21 13 21 -2 0 -10 -8 -17
-17z"/>
<path d="M2740 3308 c41 -45 50 -53 50 -45 0 2 -21 23 -47 47 l-48 45 45 -47z"/>
<path d="M509 3313 l-24 -28 28 24 c15 14 27 26 27 28 0 8 -8 1 -31 -24z"/>
<path d="M2521 3313 c-31 -39 -15 -83 39 -101 24 -9 31 -7 47 10 17 19 17 20
-6 39 -26 22 -49 16 -29 -8 10 -13 9 -15 -6 -12 -10 2 -24 12 -30 22 -9 15 -7
22 12 37 27 22 50 16 63 -16 10 -28 29 -32 29 -6 0 26 -42 62 -72 62 -17 0
-34 -10 -47 -27z"/>
<path d="M607 3297 l-38 -32 43 -48 43 -47 38 36 c24 22 35 40 30 45 -6 6 -19
-1 -33 -16 -13 -14 -27 -25 -32 -25 -17 0 -7 36 13 48 16 10 18 17 10 25 -8 8
-17 5 -34 -11 -33 -31 -43 -14 -11 19 37 39 15 43 -29 6z"/>
<path d="M439 3243 l-34 -38 38 34 c20 19 37 36 37 38 0 8 -8 0 -41 -34z"/>
<path d="M2637 3222 c-20 -21 -37 -42 -37 -48 0 -19 67 -77 75 -64 4 6 -3 22
-15 35 -30 32 -16 54 16 24 28 -26 45 -18 21 9 -17 19 -23 42 -10 42 4 0 17
-10 30 -22 37 -35 40 -11 3 27 -19 19 -37 35 -40 35 -3 0 -23 -17 -43 -38z"/>
<path d="M2800 3247 c0 -2 15 -16 33 -33 l32 -29 -29 33 c-28 30 -36 37 -36
29z"/>
<path d="M364 3158 l-19 -23 23 19 c21 18 27 26 19 26 -2 0 -12 -10 -23 -22z"/>
<path d="M453 3144 l-27 -36 44 -39 c27 -23 49 -34 54 -29 6 6 3 17 -7 28 -22
24 -13 32 34 32 21 0 40 4 43 9 7 10 -17 21 -45 21 -12 0 -17 5 -14 10 9 15
-14 40 -36 40 -10 0 -30 -16 -46 -36z m46 -26 c-8 -14 -14 -17 -22 -9 -7 7 -6
15 3 25 17 22 32 9 19 -16z"/>
<path d="M2876 3168 c4 -7 26 -38 49 -68 23 -30 64 -92 91 -137 27 -45 50 -80
52 -78 9 9 -180 295 -195 295 -2 0 -1 -6 3 -12z"/>
<path d="M329 3113 c-13 -16 -12 -17 4 -4 9 7 17 15 17 17 0 8 -8 3 -21 -13z"/>
<path d="M299 3073 c-13 -16 -12 -17 4 -4 9 7 17 15 17 17 0 8 -8 3 -21 -13z"/>
<path d="M2745 3080 c-10 -16 26 -53 39 -40 7 7 4 17 -11 31 -14 15 -23 18
-28 9z"/>
<path d="M373 3039 c-9 -9 -5 -24 17 -63 l29 -51 -23 -30 -23 -29 -37 22 c-35
21 -56 22 -56 2 0 -9 83 -60 97 -60 15 0 67 98 68 126 0 26 11 37 48 48 29 9
11 23 -39 31 -26 3 -52 9 -58 11 -6 2 -17 -1 -23 -7z m57 -39 c0 -5 -4 -10
-10 -10 -5 0 -10 5 -10 10 0 6 5 10 10 10 6 0 10 -4 10 -10z"/>
<path d="M263 3018 c-15 -20 -25 -38 -20 -38 3 0 12 11 21 25 17 26 16 35 -1
13z"/>
<path d="M2832 2994 c-42 -29 -19 -114 31 -114 25 0 21 24 -5 35 -33 14 -29
47 5 59 22 8 30 7 37 -4 6 -8 8 -20 5 -27 -2 -6 3 -17 11 -23 12 -11 14 -7 14
22 0 59 -50 86 -98 52z"/>
<path d="M220 2950 c-6 -11 -8 -20 -6 -20 3 0 10 9 16 20 6 11 8 20 6 20 -3 0
-10 -9 -16 -20z"/>
<path d="M2908 2875 c-33 -17 -46 -30 -42 -40 5 -12 10 -12 27 -4 17 9 23 8
34 -7 12 -16 11 -21 -8 -35 -12 -9 -19 -21 -15 -27 5 -8 24 -3 62 15 56 28 66
50 20 45 -32 -3 -48 25 -23 43 20 14 22 35 5 35 -7 -1 -34 -12 -60 -25z"/>
<path d="M234 2805 c-4 -8 11 -34 35 -62 22 -26 38 -49 36 -51 -2 -2 -25 3
-51 12 -60 20 -61 20 -67 -4 -3 -13 3 -24 19 -35 33 -22 30 -32 -10 -27 -27 3
-34 0 -39 -17 -4 -17 3 -23 49 -41 65 -24 64 -24 64 -7 0 8 -10 19 -22 25 -22
10 -21 11 10 11 38 1 43 22 10 46 -23 17 -23 17 7 11 27 -6 32 -3 41 23 7 16
8 35 4 42 -12 18 10 59 32 59 10 0 18 7 18 15 0 22 -128 22 -136 0z m66 -25
c0 -5 -4 -10 -9 -10 -6 0 -13 5 -16 10 -3 6 1 10 9 10 9 0 16 -4 16 -10z"/>
<path d="M2968 2749 c-43 -19 -46 -23 -37 -45 5 -13 14 -36 19 -51 7 -18 14
-23 21 -16 7 7 6 19 -2 37 -10 20 -10 29 -1 38 9 9 15 5 24 -20 12 -31 37 -40
29 -11 -2 8 -6 22 -8 32 -9 29 14 19 27 -14 9 -20 16 -27 23 -20 12 12 -20 91
-37 91 -6 -1 -32 -10 -58 -21z"/>
<path d="M3130 2735 c0 -5 5 -17 10 -25 5 -8 10 -10 10 -5 0 6 -5 17 -10 25
-5 8 -10 11 -10 5z"/>
<path d="M96 2685 c-9 -26 -7 -32 5 -12 6 10 9 21 6 23 -2 3 -7 -2 -11 -11z"/>
<path d="M3160 2655 c0 -5 5 -17 10 -25 5 -8 10 -10 10 -5 0 6 -5 17 -10 25
-5 8 -10 11 -10 5z"/>
<path d="M3018 2632 c-59 -19 -67 -46 -11 -36 l37 7 -27 -32 c-46 -56 -34 -68
47 -43 60 18 70 39 17 34 l-33 -2 21 29 c23 33 28 62 9 60 -7 -1 -34 -9 -60
-17z"/>
<path d="M140 2556 c0 -10 19 -21 52 -31 64 -19 68 -19 68 0 0 8 -17 19 -42
25 -24 6 -51 13 -60 16 -12 4 -18 0 -18 -10z"/>
<path d="M3192 2550 c0 -8 4 -26 8 -40 6 -20 8 -21 8 -5 0 11 -3 29 -8 40 -5
12 -8 14 -8 5z"/>
<path d="M127 2503 c-14 -13 -6 -23 17 -23 39 0 40 -18 1 -34 -46 -20 -45 -42
3 -51 20 -3 47 -9 60 -12 15 -4 22 -1 22 10 0 9 -13 18 -32 23 l-33 7 35 16
c63 29 65 47 8 56 -24 3 -50 8 -59 11 -8 2 -18 1 -22 -3z"/>
<path d="M3058 2498 c-31 -7 -48 -15 -48 -25 0 -11 7 -13 30 -8 37 8 38 -1 3
-37 -38 -40 -22 -51 50 -37 62 13 74 36 16 31 l-33 -3 27 29 c28 29 36 63 15
61 -7 -1 -34 -6 -60 -11z"/>
<path d="M41 2484 c0 -11 3 -14 6 -6 3 7 2 16 -1 19 -3 4 -6 -2 -5 -13z"/>
<path d="M3211 2454 c0 -11 3 -14 6 -6 3 7 2 16 -1 19 -3 4 -6 -2 -5 -13z"/>
<path d="M31 2424 c0 -11 3 -14 6 -6 3 7 2 16 -1 19 -3 4 -6 -2 -5 -13z"/>
<path d="M3222 2405 c0 -16 2 -22 5 -12 2 9 2 23 0 30 -3 6 -5 -1 -5 -18z"/>
<path d="M22 2370 c0 -14 2 -19 5 -12 2 6 2 18 0 25 -3 6 -5 1 -5 -13z"/>
<path d="M152 2347 c-41 -14 -62 -26 -60 -35 2 -8 29 -29 61 -48 52 -31 57
-32 57 -14 0 11 -4 20 -10 20 -16 0 -12 42 6 61 29 32 10 37 -54 16z m13 -37
c3 -5 -1 -10 -9 -10 -9 0 -16 5 -16 10 0 6 4 10 9 10 6 0 13 -4 16 -10z"/>
<path d="M3030 2350 c0 -5 6 -13 13 -17 23 -14 29 -45 11 -64 -31 -35 -4 -38
51 -6 69 40 70 60 6 81 -57 18 -81 20 -81 6z m84 -39 c3 -5 -1 -11 -9 -15 -9
-3 -15 0 -15 9 0 16 16 20 24 6z"/>
<path d="M13 2280 c0 -36 2 -50 4 -32 2 17 2 47 0 65 -2 17 -4 3 -4 -33z"/>
<path d="M3231 2324 c0 -11 3 -14 6 -6 3 7 2 16 -1 19 -3 4 -6 -2 -5 -13z"/>
<path d="M3244 2140 c0 -69 1 -97 3 -62 2 34 2 90 0 125 -2 34 -3 6 -3 -63z"/>
<path d="M97 2233 c-3 -4 -7 -26 -9 -48 l-3 -40 63 -3 c51 -2 62 0 62 13 0 9
-9 15 -24 15 -21 0 -25 6 -28 33 -2 26 -8 33 -30 35 -14 2 -28 0 -31 -5z m43
-43 c0 -11 -7 -20 -15 -20 -8 0 -15 9 -15 20 0 11 7 20 15 20 8 0 15 -9 15
-20z"/>
<path d="M3077 2223 c-57 -6 -41 -28 21 -29 55 -1 78 7 68 25 -7 11 -16 11
-89 4z"/>
<path d="M3042 2158 c6 -18 28 -21 28 -4 0 9 -7 16 -16 16 -9 0 -14 -5 -12
-12z"/>
<path d="M13 2035 c0 -38 2 -53 4 -32 2 20 2 52 0 70 -2 17 -4 1 -4 -38z"/>
<path d="M3232 1970 c0 -19 2 -27 5 -17 2 9 2 25 0 35 -3 9 -5 1 -5 -18z"/>
<path d="M22 1940 c0 -14 2 -19 5 -12 2 6 2 18 0 25 -3 6 -5 1 -5 -13z"/>
<path d="M3222 1895 c0 -16 2 -22 5 -12 2 9 2 23 0 30 -3 6 -5 -1 -5 -18z"/>
<path d="M31 1874 c0 -11 3 -14 6 -6 3 7 2 16 -1 19 -3 4 -6 -2 -5 -13z"/>
<path d="M3212 1840 c0 -14 2 -19 5 -12 2 6 2 18 0 25 -3 6 -5 1 -5 -13z"/>
<path d="M41 1814 c0 -11 3 -14 6 -6 3 7 2 16 -1 19 -3 4 -6 -2 -5 -13z"/>
<path d="M195 1783 c-7 -30 -11 -33 -44 -33 l-36 -1 27 -20 c23 -17 25 -24 18
-49 -10 -34 -5 -37 21 -14 17 15 20 14 50 -6 l31 -23 -7 24 c-4 13 -10 29 -12
36 -3 6 5 18 16 25 29 18 26 28 -8 28 -23 0 -30 6 -38 33 l-11 32 -7 -32z"/>
<path d="M3201 1784 c0 -11 3 -14 6 -6 3 7 2 16 -1 19 -3 4 -6 -2 -5 -13z"/>
<path d="M3030 1752 c-11 -30 -16 -33 -41 -30 -34 5 -39 -7 -8 -17 18 -6 20
-13 16 -41 -6 -37 -2 -41 27 -19 17 13 22 12 47 -6 l28 -20 -11 32 c-10 28 -8
34 13 50 l24 19 -27 0 c-22 0 -31 7 -42 33 l-14 32 -12 -33z"/>
<path d="M3191 1753 c-1 -6 -4 -20 -7 -30 -5 -17 -5 -17 6 0 6 10 9 23 6 30
-3 9 -5 9 -5 0z"/>
<path d="M3171 1674 c0 -11 3 -14 6 -6 3 7 2 16 -1 19 -3 4 -6 -2 -5 -13z"/>
<path d="M3156 1635 c-9 -26 -7 -32 5 -12 6 10 9 21 6 23 -2 3 -7 -2 -11 -11z"/>
<path d="M3136 1585 c-9 -26 -7 -32 5 -12 6 10 9 21 6 23 -2 3 -7 -2 -11 -11z"/>
<path d="M120 1551 c0 -6 4 -13 10 -16 6 -3 7 1 4 9 -7 18 -14 21 -14 7z"/>
<path d="M3103 1499 c-12 -27 -20 -49 -18 -49 8 0 46 81 43 90 -2 4 -13 -14
-25 -41z"/>
<path d="M3066 1425 c-9 -26 -7 -32 5 -12 6 10 9 21 6 23 -2 3 -7 -2 -11 -11z"/>
<path d="M190 1401 c0 -6 4 -13 10 -16 6 -3 7 1 4 9 -7 18 -14 21 -14 7z"/>
<path d="M2811 1356 c-31 -45 -31 -68 0 -40 16 14 20 14 55 -10 34 -23 54 -26
54 -8 0 4 -18 18 -40 32 -41 26 -47 34 -30 45 13 8 13 25 0 25 -5 0 -23 -20
-39 -44z"/>
<path d="M3018 1334 c-130 -219 -337 -425 -560 -555 -38 -23 -67 -43 -65 -46
6 -5 143 79 220 135 86 64 234 209 297 292 46 61 97 138 147 223 2 4 2 7 -1 7
-3 0 -20 -25 -38 -56z"/>
<path d="M220 1350 c6 -11 13 -20 16 -20 2 0 0 9 -6 20 -6 11 -13 20 -16 20
-2 0 0 -9 6 -20z"/>
<path d="M316 1355 c-10 -26 12 -55 40 -55 21 0 48 14 93 46 1 2 0 8 -4 14 -5
7 -21 3 -50 -15 -53 -31 -57 -31 -53 -3 4 25 -17 36 -26 13z"/>
<path d="M422 1282 c-36 -9 -61 -20 -59 -26 2 -6 13 -10 24 -9 21 2 50 -38 40
-54 -6 -9 9 -41 16 -33 13 17 57 105 57 116 0 21 -12 22 -78 6z m38 -31 c0
-17 -18 -21 -24 -6 -3 9 0 15 9 15 8 0 15 -4 15 -9z"/>
<path d="M2746 1268 c-36 -50 -6 -84 46 -54 32 19 44 16 35 -9 -4 -8 -16 -15
-28 -15 -21 0 -22 -21 -1 -28 19 -6 64 46 60 71 -4 28 -39 34 -70 13 -28 -20
-39 -20 -32 -2 3 8 14 16 25 19 25 7 25 27 0 27 -11 0 -27 -10 -35 -22z"/>
<path d="M301 1226 c19 -26 49 -65 67 -85 18 -20 10 -4 -19 34 -64 85 -95 119
-48 51z"/>
<path d="M491 1182 c-31 -27 -41 -41 -32 -46 12 -8 101 57 101 75 0 19 -26 8
-69 -29z"/>
<path d="M2686 1203 c-3 -4 10 -24 31 -45 34 -35 36 -39 21 -54 -15 -16 -19
-14 -54 15 -26 21 -42 27 -48 21 -14 -14 51 -70 80 -70 26 0 54 30 54 56 0 11
-15 34 -33 52 -35 34 -40 36 -51 25z"/>
<path d="M553 1173 c-17 -6 -16 -28 3 -64 14 -29 14 -31 -2 -27 -10 2 -21 13
-24 26 -6 27 -23 31 -28 7 -5 -21 36 -65 59 -65 28 0 40 31 23 60 -16 30 -17
40 -4 40 6 0 15 -11 20 -25 5 -14 14 -25 20 -25 18 0 10 36 -13 58 -24 22 -32
25 -54 15z"/>
<path d="M2557 1075 l-28 -25 37 -45 c20 -25 40 -45 44 -45 17 0 18 14 3 37
l-16 25 41 -3 c51 -4 78 15 33 24 -21 4 -30 13 -33 29 -4 33 -46 34 -81 3z
m57 -4 c3 -4 -3 -16 -13 -25 -22 -20 -40 -4 -21 19 14 17 26 19 34 6z"/>
<path d="M475 1020 c33 -33 62 -60 64 -60 3 0 -21 27 -54 60 -33 33 -62 60
-64 60 -3 0 21 -27 54 -60z"/>
<path d="M620 1050 c-42 -22 -51 -30 -38 -35 9 -4 21 -4 26 -1 12 7 39 -23 43
-48 8 -40 25 -24 41 36 24 89 17 95 -72 48z m50 -26 c0 -8 -4 -12 -10 -9 -5 3
-10 10 -10 16 0 5 5 9 10 9 6 0 10 -7 10 -16z"/>
<path d="M2472 1009 c-23 -17 -40 -35 -36 -40 3 -6 12 -5 21 3 13 11 20 7 47
-25 17 -20 37 -37 44 -37 18 0 15 9 -15 48 -21 29 -24 38 -15 53 25 39 11 38
-46 -2z"/>
<path d="M720 974 c-21 -29 -29 -49 -23 -55 6 -6 14 -4 23 6 22 26 39 17 42
-22 5 -56 28 -55 28 1 0 42 2 46 25 46 14 0 34 -8 44 -17 20 -16 20 -17 -5
-58 -21 -37 -23 -55 -4 -55 3 0 16 18 29 40 19 34 26 39 47 34 42 -11 25 10
-39 47 -47 28 -70 35 -94 32 -32 -5 -45 8 -23 22 11 7 4 25 -9 25 -4 0 -22
-21 -41 -46z"/>
<path d="M631 882 c41 -31 85 -64 99 -73 84 -52 103 -62 96 -51 -4 7 -25 21
-46 32 -22 11 -78 49 -125 85 -48 36 -89 65 -92 65 -3 0 28 -26 68 -58z"/>
<path d="M2323 912 c-9 -6 -4 -22 18 -60 l29 -52 40 20 c40 20 53 40 26 40 -8
0 -18 -4 -21 -10 -12 -20 -34 -9 -56 30 -16 25 -28 37 -36 32z"/>
<path d="M936 849 c-14 -28 -26 -55 -26 -60 0 -18 29 -9 35 11 8 24 15 25 40
6 17 -12 17 -16 5 -31 -12 -14 -12 -18 1 -25 11 -7 20 3 41 43 18 35 23 55 16
62 -7 7 -15 3 -25 -12 -21 -31 -56 -14 -47 21 11 46 -15 36 -40 -15z"/>
<path d="M2243 873 c-9 -3 -13 -28 -13 -75 0 -51 3 -69 13 -66 6 3 14 13 16
24 5 27 21 35 59 29 17 -3 32 -2 32 4 0 15 -94 88 -107 84z m28 -56 c-1 -12
-15 -9 -19 4 -3 6 1 10 8 8 6 -3 11 -8 11 -12z"/>
<path d="M1055 789 c-21 -54 -22 -62 -7 -67 5 -1 19 21 31 49 24 60 26 69 8
69 -7 0 -21 -23 -32 -51z"/>
<path d="M2155 830 c-3 -5 -1 -19 5 -31 17 -31 5 -34 -30 -9 -17 12 -37 19
-45 16 -13 -5 -12 -13 6 -58 24 -61 24 -62 38 -54 7 5 7 15 1 32 -14 37 -14
37 29 12 22 -12 43 -20 46 -16 8 8 -26 118 -36 118 -4 0 -11 -4 -14 -10z"/>
<path d="M1147 753 c-9 -31 -16 -58 -14 -58 1 -1 23 -9 50 -18 38 -13 47 -13
47 -2 0 7 -13 16 -30 20 -17 4 -30 13 -30 22 0 12 7 14 35 9 43 -8 48 10 5 19
-17 4 -30 13 -30 21 0 11 6 14 20 10 11 -3 30 -9 41 -12 15 -4 20 -2 17 6 -3
10 -66 36 -94 40 -1 0 -8 -26 -17 -57z"/>
<path d="M1276 764 c-3 -8 -8 -36 -12 -63 l-6 -49 35 -4 c49 -5 75 6 83 37 10
42 -9 71 -55 82 -31 8 -41 8 -45 -3z m58 -27 c28 -20 18 -61 -16 -65 -30 -4
-31 -1 -22 47 7 35 12 37 38 18z"/>
<path d="M1968 769 c-23 -13 -24 -72 -2 -93 18 -19 62 -20 85 -3 47 36 24 107
-34 107 -17 0 -40 -5 -49 -11z m76 -31 c8 -13 8 -23 0 -35 -17 -28 -41 -27
-60 1 -13 22 -14 29 -4 42 16 19 49 15 64 -8z"/>
<path d="M1880 754 c-8 -1 -36 -6 -63 -9 -45 -6 -58 -25 -16 -25 14 0 19 -7
19 -27 0 -44 11 -72 24 -67 9 3 12 20 8 53 -4 43 -2 49 17 54 25 6 28 2 37
-51 4 -26 12 -42 20 -42 17 0 17 5 3 70 -10 48 -15 52 -49 44z"/>
<path d="M847 739 c7 -7 15 -10 18 -7 3 3 -2 9 -12 12 -14 6 -15 5 -6 -5z"/>
<path d="M1400 695 c0 -49 3 -57 24 -66 54 -25 86 4 86 79 0 39 -17 43 -25 5
-4 -16 -8 -38 -11 -51 -3 -15 -11 -22 -22 -20 -13 2 -18 16 -20 56 -2 37 -7
52 -18 52 -10 0 -14 -14 -14 -55z"/>
<path d="M1706 732 c-4 -7 -46 -115 -46 -119 0 -11 29 0 34 12 6 17 66 21 66
5 0 -5 9 -10 20 -10 18 0 17 4 -13 60 -30 55 -49 72 -61 52z m28 -47 c3 -9 0
-15 -9 -15 -9 0 -12 6 -9 15 4 8 7 15 9 15 2 0 5 -7 9 -15z"/>
<path d="M896 715 c10 -8 23 -15 28 -15 6 0 1 7 -10 15 -10 8 -23 15 -28 15
-6 0 -1 -7 10 -15z"/>
<path d="M1546 714 c-24 -23 -20 -70 6 -88 30 -21 61 -20 82 3 22 24 1 34 -30
14 -18 -11 -23 -11 -33 1 -7 8 -11 25 -9 38 3 21 8 23 47 20 39 -2 42 -1 31
13 -16 20 -74 19 -94 -1z"/>
<path d="M2330 710 c-19 -10 -68 -31 -108 -46 -40 -15 -71 -29 -68 -31 2 -2
39 10 82 27 82 32 157 69 139 69 -5 0 -26 -8 -45 -19z"/>
<path d="M950 690 c8 -5 20 -10 25 -10 6 0 3 5 -5 10 -8 5 -19 10 -25 10 -5 0
-3 -5 5 -10z"/>
<path d="M990 674 c0 -7 52 -25 57 -20 2 2 -10 8 -26 14 -17 6 -31 9 -31 6z"/>
<path d="M1078 638 c5 -5 16 -8 23 -6 8 3 3 7 -10 11 -17 4 -21 3 -13 -5z"/>
<path d="M1148 613 c7 -3 16 -2 19 1 4 3 -2 6 -13 5 -11 0 -14 -3 -6 -6z"/>
<path d="M2070 610 c-21 -7 -21 -8 -5 -9 11 0 27 4 35 9 18 11 5 11 -30 0z"/>
<path d="M1188 603 c7 -3 16 -2 19 1 4 3 -2 6 -13 5 -11 0 -14 -3 -6 -6z"/>
<path d="M1255 585 c22 -8 54 -13 70 -13 19 0 7 5 -30 13 -75 17 -92 17 -40 0z"/>
<path d="M1960 584 c-30 -8 -36 -12 -20 -12 14 0 43 5 65 13 51 17 14 16 -45
-1z"/>
<path d="M1385 561 c30 -9 122 -14 114 -7 -2 2 -35 6 -74 9 -44 4 -59 3 -40
-2z"/>
<path d="M1810 560 c-34 -7 -34 -7 -5 -8 17 -1 48 3 70 7 l40 9 -35 0 c-19 -1
-51 -4 -70 -8z"/>
<path d="M1593 543 c15 -2 39 -2 55 0 15 2 2 4 -28 4 -30 0 -43 -2 -27 -4z"/>
<path d="M1132 480 c-50 -21 -55 -104 -6 -116 14 -4 41 -2 60 4 26 8 37 7 51
-5 13 -10 15 -16 5 -20 -7 -2 -19 -18 -27 -33 -27 -52 7 -108 90 -146 52 -25
139 -32 173 -15 9 5 29 14 44 21 15 7 43 28 63 46 l36 32 49 -42 c107 -91 237
-94 326 -6 44 42 50 73 24 117 -27 46 -15 62 33 45 44 -16 62 -15 81 4 25 24
20 69 -10 93 -39 31 -87 27 -160 -13 -52 -29 -64 -33 -74 -21 -6 8 -27 23 -45
34 l-34 20 2 -54 c2 -44 -2 -58 -22 -79 -15 -15 -35 -26 -51 -26 -29 0 -60 27
-60 53 0 20 -30 37 -63 37 -26 0 -57 -28 -57 -51 0 -44 -67 -53 -107 -13 -22
23 -25 32 -21 80 l5 54 -31 -18 c-17 -10 -40 -24 -51 -31 -18 -11 -27 -9 -72
19 -54 34 -114 46 -151 30z m147 -65 c33 -32 21 -41 -20 -16 -40 25 -78 27
-105 6 -27 -21 -34 -19 -34 10 0 39 52 59 100 39 19 -8 46 -26 59 -39z m827
22 c19 -16 25 -29 21 -41 -7 -16 -9 -16 -40 3 -37 22 -61 20 -116 -13 -53 -31
-34 3 23 42 57 38 76 40 112 9z m-688 -94 c32 -58 106 -71 148 -26 31 33 40
24 25 -26 -14 -48 -68 -98 -117 -107 -49 -9 -139 20 -176 56 -49 49 -30 103
20 58 61 -55 110 -73 160 -58 25 7 25 8 7 14 -109 38 -151 106 -102 165 10 11
13 8 18 -20 3 -19 11 -44 17 -56z m453 53 c24 -52 -22 -117 -95 -137 l-41 -12
28 -9 c42 -15 89 -2 138 37 47 37 65 43 72 23 16 -47 -89 -118 -173 -118 -74
0 -136 52 -155 133 -9 35 10 36 37 2 48 -62 158 -7 158 79 0 33 17 34 31 2z"/>
<path d="M1575 475 c-32 -17 -65 -51 -65 -67 0 -6 16 4 35 21 54 47 134 40
171 -16 22 -35 30 -21 8 16 -19 31 -68 61 -101 61 -10 0 -31 -7 -48 -15z"/>
<path d="M1588 146 c-36 -55 -37 -100 -3 -122 20 -13 30 -14 61 -4 35 12 36
13 32 54 -4 36 -44 116 -58 116 -3 0 -17 -20 -32 -44z m57 -26 c22 -42 12 -70
-26 -70 -38 0 -47 22 -26 66 20 42 32 43 52 4z"/>
</g>
</svg>
