<svg xmlns="http://www.w3.org/2000/svg" viewBox="73.22 26 365.59 460"><path d="M407.354 234.956l-3.324-5.838c.09-41.676-19.221-58.652-41.765-71.586 6.826-1.796 13.831-3.232 15.808-11.855 11.767-2.965 14.191-8.444 15.358-14.193 3.055-2.064 13.293-7.813 12.215-17.693 5.749-3.952 8.982-9.072 7.276-16.256 6.198-6.738 7.815-12.307 5.21-17.426 7.454-9.251 4.131-14.011.988-18.771 5.567-10.06.628-20.838-14.911-19.042-6.198-9.072-19.67-7.006-21.736-7.006-2.334-2.875-5.389-5.389-14.819-4.222-6.107-5.479-12.933-4.492-20.029-1.886-8.353-6.557-13.922-1.258-20.299.719-10.15-3.234-12.485 1.167-17.427 3.053-11.046-2.335-14.46 2.695-19.759 7.995l-6.198-.09c-16.704 9.7-24.968 29.46-27.933 39.61-2.963-10.15-11.227-29.91-27.933-39.61l-6.198.09c-5.299-5.299-8.713-10.33-19.759-7.995-5.03-1.796-7.276-6.288-17.426-3.053-4.132-1.258-7.994-3.953-12.484-3.864-2.335.09-4.941.899-7.814 3.145-7.096-2.694-13.921-3.592-20.03 1.886-9.431-1.167-12.575 1.257-14.82 4.222-2.066 0-15.54-2.066-21.736 7.006-15.539-1.796-20.39 8.982-14.821 19.042-3.144 4.851-6.467 9.611.989 18.771-2.605 5.119-.989 10.688 5.209 17.426-1.617 7.185 1.618 12.305 7.276 16.256-1.078 9.88 9.161 15.629 12.215 17.693 1.167 5.749 3.593 11.139 15.359 14.193 1.976 8.533 8.982 10.059 15.809 11.855-22.545 12.935-41.856 29.91-41.767 71.586l-3.322 5.838C78.886 250.404 55.624 300.254 92 340.673c2.336 12.663 6.377 21.735 9.881 31.795 5.299 40.598 39.969 59.552 49.042 61.796 13.382 10.059 27.663 19.581 46.885 26.229C216.04 478.995 235.801 486 255.561 486h.899c19.85 0 39.519-7.005 57.663-25.507 19.312-6.647 33.502-16.17 46.886-26.229 9.16-2.244 43.74-21.198 49.039-61.796 3.504-10.06 7.547-19.132 9.882-31.795 36.464-40.509 13.202-90.269-12.576-105.717zm-19.941-7.186c-1.348 16.796-88.83-58.473-73.74-60.987 41.048-6.736 75.088 17.244 73.74 60.987zm-38.622 83.622c-22.006 14.192-53.711 5.03-70.776-20.478-17.065-25.509-13.113-57.665 8.893-71.856 22.005-14.191 53.711-5.029 70.777 20.479 17.064 25.51 13.111 57.663-8.894 71.855zM287.805 52.444c.719 3.773 1.616 6.108 2.605 6.826 4.85-5.209 8.802-10.509 15.089-15.539 0 2.965-1.526 6.108 2.245 8.443 3.323-4.491 7.904-8.532 13.922-11.946-2.873 5.03-.539 6.557 1.077 8.623 4.582-3.952 8.983-7.903 17.426-11.047-2.336 2.784-5.568 5.568-2.155 8.802 4.761-2.963 9.521-5.927 20.749-7.995-2.516 2.785-7.815 5.659-4.583 8.444 5.931-2.246 12.574-3.952 19.852-4.851-3.504 2.875-6.378 5.659-3.504 7.905 6.377-1.976 15.181-4.582 23.713-2.336l-5.39 5.479c-.628.718 12.664.539 21.466.718-3.233 4.491-6.467 8.713-8.354 16.347.899.899 5.211.36 9.342 0-4.222 8.893-11.497 11.048-13.203 14.909 2.604 1.977 6.107 1.438 10.06.09-3.054 6.198-9.341 10.509-14.371 15.54 1.258.897 3.502 1.437 8.713.808-4.671 4.94-10.239 9.431-16.886 13.472 1.167 1.348 5.209 1.348 8.981 1.438-6.018 5.838-13.742 8.893-21.017 12.754 3.592 2.424 6.196 1.886 8.981 1.886-5.119 4.222-13.833 6.377-21.916 8.982 1.526 2.425 3.056 3.053 6.378 3.682-8.534 4.761-20.839 2.605-24.251 5.03.809 2.424 3.233 3.952 6.017 5.209-13.831.809-51.466-.539-58.741-29.011 14.102-15.54 39.88-33.682 84.16-56.227-34.49 11.497-65.568 26.945-91.614 48.053-30.809-14.279-9.701-50.206 5.209-64.488zm-30.898 102.931c21.735-.269 48.592 15.989 48.502 31.168-.09 13.472-18.862 24.34-48.322 24.16-28.832-.359-48.233-13.652-48.143-26.766 0-10.688 23.533-29.189 47.963-28.562zM146.43 143.879c3.323-.629 4.851-1.348 6.377-3.682-8.084-2.515-16.796-4.761-21.916-8.982 2.784 0 5.389.629 8.982-1.886-7.275-3.861-15-6.916-21.018-12.754 3.772-.09 7.814 0 8.981-1.438-6.646-4.041-12.215-8.532-16.885-13.472 5.209.629 7.454.09 8.711-.808-5.03-5.031-11.406-9.342-14.37-15.54 3.861 1.348 7.455 1.796 10.059-.09-1.707-3.771-8.982-6.017-13.203-14.909 4.131.36 8.443.899 9.341 0-1.886-7.634-5.21-11.945-8.354-16.347 8.803-.089 22.096 0 21.466-.718l-5.389-5.479c8.533-2.246 17.335.36 23.712 2.336 2.875-2.246-.09-5.03-3.503-7.905 7.275.988 13.832 2.605 19.85 4.851 3.143-2.785-2.066-5.659-4.581-8.444 11.228 2.067 15.987 5.031 20.749 7.995 3.413-3.233.179-6.018-2.156-8.802 8.443 3.054 12.845 7.096 17.426 11.047 1.527-2.066 3.952-3.593 1.077-8.623 6.019 3.414 10.599 7.455 13.922 11.946 3.682-2.334 2.246-5.568 2.246-8.443 6.287 5.03 10.239 10.33 15.089 15.539.988-.718 1.796-3.053 2.605-6.826 14.91 14.282 36.015 50.209 5.389 64.49-26.047-21.107-57.125-36.556-91.615-48.053 44.28 22.455 70.058 40.687 84.16 56.227-7.186 28.562-44.909 29.82-58.741 29.011 2.784-1.257 5.209-2.874 6.018-5.209-3.591-2.517-15.806-.361-24.429-5.032zm53.981 21.647c15.089 2.514-72.394 77.693-73.741 60.986-1.348-43.741 32.785-67.813 73.741-60.986zm-92.872 167.781c-21.286-16.885-28.113-66.196 11.317-88.291 23.802-6.287 8.083 96.824-11.317 88.291zm81.735 88.203c-11.947 7.095-41.137 4.221-61.796-25.061-13.922-24.608-12.125-49.58-2.335-56.944 14.641-8.804 37.274 3.054 54.699 22.993 15.181 17.964 22.096 49.67 9.432 59.012zm-23.712-107.514c-22.005-14.191-25.958-46.347-8.893-71.855 17.066-25.508 48.772-34.67 70.778-20.478 22.005 14.19 25.957 46.345 8.892 71.856-17.155 25.507-48.861 34.669-70.777 20.477zm91.794 157.633c-26.407 1.076-52.275-21.287-51.916-29.013-.359-11.406 32.156-20.298 53.263-19.759 21.286-.898 49.938 6.735 50.028 16.975.451 9.88-25.867 32.244-51.375 31.797zm52.903-112.185c.18 26.677-23.532 48.322-52.813 48.502-29.281.18-53.172-21.376-53.352-47.964v-.538c-.18-26.677 23.533-48.321 52.813-48.501 29.28-.181 53.173 21.377 53.352 47.961v.54zm73.83 38.354c-22.723 31.077-53.53 32.243-64.938 23.62-11.946-11.136-2.875-45.715 13.563-64.669 18.771-20.927 38.892-34.58 52.902-23.891 9.432 9.25 15.001 44.101-1.527 64.94zm20.569-65.749c-19.31 8.444-35.029-94.58-11.317-88.292 39.431 22.187 32.604 71.496 11.317 88.292z"/></svg>